<?xml version="1.0" standalone="no"?>
<!DOCTYPE svg PUBLIC "-//W3C//DTD SVG 20010904//EN"
 "http://www.w3.org/TR/2001/REC-SVG-20010904/DTD/svg10.dtd">
<svg version="1.0" xmlns="http://www.w3.org/2000/svg"
 width="952.000000pt" height="481.000000pt" viewBox="0 0 952.000000 481.000000"
 preserveAspectRatio="xMidYMid meet">
<metadata>
Created by potrace 1.11, written by Peter Selinger 2001-2013
</metadata>
<rect x="0" y="0" fill="#fff" stroke="#000000" stroke-miterlimit="10" width="952" height="481"/>
<g transform="translate(0.000000,481.000000) scale(0.100000,-0.100000)"
fill="#000000" stroke="none">
<path d="M5175 4252 c-4 -53 -8 -115 -10 -137 -4 -42 -35 -169 -54 -218 -16
-42 -14 -56 8 -50 12 3 24 -3 35 -18 20 -29 20 -53 2 -68 -11 -9 -12 -6 -9 16
4 25 2 25 -12 -7 -11 -23 -12 -36 -5 -38 16 -6 36 -53 38 -90 2 -33 2 -33 -20
-18 -33 23 -45 19 -20 -6 20 -22 46 -107 36 -117 -6 -6 -24 21 -19 29 2 3 -8
6 -22 6 l-25 2 22 -23 c21 -22 55 -114 45 -123 -2 -3 -19 9 -36 26 -25 24 -36
29 -45 21 -10 -8 -11 -16 -4 -29 6 -10 10 -91 10 -179 0 -131 3 -161 14 -161
8 0 14 -6 13 -12 0 -7 1 -37 1 -65 l2 -53 38 0 37 0 1 -642 c1 -354 5 -679 9
-724 6 -78 6 -81 -15 -79 -12 1 -25 6 -28 11 -10 13 -52 17 -52 5 0 -5 8 -11
17 -13 16 -3 17 -22 14 -222 -2 -174 0 -221 11 -228 8 -6 9 -11 2 -14 -5 -2
-9 -22 -8 -44 1 -22 -2 -43 -7 -46 -9 -5 -10 -4 -13 60 -1 34 -5 41 -28 47
-17 4 -28 3 -31 -4 -2 -6 -9 -7 -16 -3 -11 7 -11 10 0 17 11 7 12 12 1 29 -10
17 -10 20 3 20 9 0 12 6 9 15 -4 8 -10 12 -15 9 -5 -3 -9 -1 -9 5 0 5 8 12 18
14 15 4 15 5 0 6 -10 1 -18 12 -21 29 -3 23 -4 21 -6 -9 -1 -33 -3 -36 -32
-37 -24 -1 -29 2 -20 11 13 13 15 31 3 23 -5 -3 -6 16 -2 42 4 26 6 77 5 115
-1 50 2 67 12 67 7 0 13 5 13 11 0 5 -4 8 -8 5 -16 -9 -51 24 -46 42 4 11 3
13 -3 5 -6 -9 -16 -8 -41 4 -38 19 -41 33 -7 33 32 0 33 15 1 16 -14 1 -27 -4
-30 -12 -13 -33 -25 -10 -22 41 3 61 9 73 28 58 25 -19 48 -23 48 -8 0 8 -5
15 -11 15 -14 0 -38 30 -39 48 0 6 11 12 25 12 14 0 25 5 25 11 0 16 -43 6
-58 -13 -16 -22 -36 -24 -28 -3 4 12 0 14 -19 9 l-25 -6 0 95 c0 67 4 97 13
100 10 4 10 6 0 6 -16 1 -17 31 -2 31 6 0 7 5 2 13 -7 11 -11 81 -13 225 0 28
-4 52 -9 52 -18 0 -22 34 -6 46 9 7 16 21 15 31 -4 35 0 64 8 59 13 -8 9 38
-6 53 -11 11 -15 11 -28 -5 -14 -18 -14 -18 -7 1 3 11 10 22 14 25 11 8 18
120 7 120 -5 0 -3 6 4 14 7 7 19 11 27 8 11 -4 12 1 7 21 -4 19 -1 29 11 37
13 8 15 13 5 17 -10 4 -10 8 -1 19 9 11 8 14 -7 15 -11 0 -14 3 -6 6 7 3 18 0
26 -6 10 -8 12 4 12 62 0 39 -5 75 -11 79 -6 5 -6 8 3 8 7 0 12 13 12 29 0 26
-4 30 -32 34 l-33 4 33 1 c17 1 32 7 32 13 0 7 -10 9 -25 7 -14 -3 -28 -1 -31
3 -3 5 9 9 25 9 27 0 31 3 31 28 0 15 -5 33 -12 40 -9 9 -9 12 1 12 7 0 9 5 6
10 -3 6 -17 10 -31 10 -21 0 -24 4 -24 39 0 65 -12 131 -24 130 -25 -3 -36 2
-36 15 0 7 -7 19 -15 26 -9 7 -13 15 -11 18 3 2 -1 10 -8 17 -11 12 -25 79
-56 282 -15 93 -37 114 -44 41 -2 -19 -6 -40 -10 -47 -5 -7 -2 -10 6 -9 9 2
12 -7 11 -30 -1 -18 2 -30 7 -27 5 3 5 -9 0 -26 -5 -18 -10 -62 -11 -98 -2
-98 -7 -121 -30 -121 -14 0 -19 -7 -19 -29 0 -16 -6 -32 -12 -34 -7 -3 -8 -6
-3 -6 6 -1 8 -24 5 -58 l-4 -58 -7 50 -6 50 -1 -49 c-2 -34 3 -52 13 -60 16
-11 17 -34 12 -313 -2 -68 1 -83 13 -83 11 0 12 -2 2 -8 -18 -12 -23 -134 -5
-128 7 3 13 1 13 -4 0 -6 -6 -10 -12 -10 -10 0 -14 -44 -16 -180 l-3 -180 23
-1 c23 -1 23 -1 2 -7 -20 -7 -22 -14 -23 -114 -2 -98 0 -108 16 -107 10 0 13
3 6 6 -7 2 -13 9 -13 14 0 6 5 7 10 4 6 -4 17 -2 24 4 10 9 15 8 19 -3 4 -9
-2 -16 -15 -19 -11 -3 -17 -10 -14 -15 3 -6 -2 -8 -13 -5 -15 4 -18 -1 -18
-21 0 -14 3 -26 8 -26 5 0 8 -5 7 -12 -2 -8 8 -11 31 -9 22 2 31 -1 27 -8 -4
-6 0 -11 8 -11 9 0 16 -5 16 -11 0 -7 -14 -10 -35 -7 -19 2 -35 0 -35 -4 0
-14 98 -9 103 5 3 7 6 5 6 -5 1 -20 3 -20 -59 -20 -67 0 -68 0 -73 24 -2 13
-5 -12 -6 -55 -1 -75 -2 -77 -21 -65 -11 7 -20 18 -20 25 0 6 -9 11 -20 10
-12 -1 -16 -5 -11 -10 10 -10 -10 -37 -27 -37 -12 0 -24 28 -13 32 4 2 5 23 2
48 l-6 45 -43 0 -42 0 0 -62 c0 -35 -3 -63 -8 -63 -4 0 -7 -19 -6 -42 0 -24
-2 -47 -6 -53 -9 -14 0 -105 11 -105 5 0 9 18 9 40 0 33 3 40 20 40 12 0 21 7
22 18 0 9 2 22 3 27 2 6 3 18 4 28 1 13 10 17 36 17 l35 0 0 -62 c-1 -62 -1
-62 -16 -35 -15 28 -28 34 -39 17 -3 -5 1 -10 9 -10 13 0 16 -14 16 -80 0 -64
3 -81 18 -90 15 -9 14 -10 -5 -5 -20 6 -23 3 -23 -25 0 -17 6 -38 14 -46 13
-12 17 -12 29 1 13 13 16 13 21 -1 3 -8 2 -12 -4 -9 -6 3 -10 1 -10 -5 0 -6
-4 -8 -10 -5 -5 3 -10 1 -10 -5 0 -7 -7 -5 -16 4 -23 23 -31 20 -32 -14 0 -17
4 -28 9 -25 5 4 9 -2 10 -12 0 -10 2 -26 4 -35 2 -10 -1 -18 -6 -18 -5 0 -9
-15 -9 -33 0 -32 -2 -33 -39 -33 -36 0 -40 3 -47 30 l-7 31 -4 -29 c-3 -16 1
-32 7 -36 16 -10 9 -112 -9 -118 -9 -3 -11 2 -6 17 4 12 2 21 -4 21 -6 0 -11
-9 -11 -20 0 -11 -7 -20 -15 -20 -8 0 -15 9 -15 21 0 11 -4 18 -10 14 -5 -3
-7 -12 -3 -20 3 -9 -1 -15 -11 -15 -13 0 -16 12 -16 63 l0 63 43 -3 c36 -3 39
-2 18 7 -18 8 -22 15 -17 35 4 14 2 25 -4 25 -5 0 -10 -4 -10 -9 0 -5 -8 -8
-17 -6 -10 2 -25 4 -33 4 -11 1 -11 4 -2 13 15 15 16 38 1 38 -5 0 -7 -5 -3
-12 5 -7 2 -9 -8 -6 -15 6 -44 -29 -34 -40 3 -3 6 0 6 6 0 7 5 12 12 12 8 0 6
-6 -5 -17 -19 -19 -29 -13 -31 17 -1 27 -20 30 -24 4 -2 -16 -8 -20 -23 -17
-15 4 -19 0 -19 -20 0 -14 5 -27 11 -29 7 -2 13 -86 16 -253 4 -166 10 -252
17 -257 8 -5 7 -8 -1 -8 -21 0 -16 -58 5 -63 16 -4 16 -5 0 -6 -13 -1 -18 -10
-18 -30 0 -20 6 -31 18 -34 16 -4 16 -5 0 -6 -13 -1 -18 -10 -18 -30 0 -20 6
-31 18 -34 16 -4 16 -5 0 -6 -13 -1 -18 -10 -18 -30 0 -20 6 -31 18 -34 16 -4
16 -5 0 -6 -16 -1 -18 -12 -18 -82 0 -56 -4 -85 -14 -95 -17 -16 -46 -19 -46
-4 0 6 -7 10 -15 10 -8 0 -15 5 -15 10 0 6 -7 10 -15 10 -8 0 -15 -7 -15 -15
0 -8 -6 -15 -12 -15 -10 0 -12 90 -10 427 3 387 5 428 20 441 15 12 15 13 1 9
-14 -5 -16 4 -16 54 l0 59 44 -4 c36 -4 43 -2 43 13 0 9 6 23 12 29 18 18 18
232 1 232 -7 0 -13 -9 -13 -20 0 -11 -4 -20 -10 -20 -5 0 -10 13 -10 30 0 23
-4 28 -16 23 -13 -5 -15 2 -11 51 3 38 1 59 -7 64 -7 4 -15 15 -19 25 -4 10
-17 17 -30 17 -21 0 -26 -7 -33 -42 l-8 -43 -4 38 c-2 20 -7 37 -13 37 -5 0
-9 16 -9 35 0 31 -3 35 -25 35 -22 0 -25 -4 -25 -35 0 -33 -1 -34 -35 -30 -20
3 -35 0 -35 -5 0 -6 11 -10 25 -10 21 0 25 -5 25 -29 0 -16 -6 -31 -15 -35
-10 -3 -15 -19 -15 -42 0 -28 3 -35 15 -30 11 4 15 -2 15 -28 0 -30 2 -33 25
-28 24 4 25 3 25 -52 0 -31 4 -56 8 -56 4 0 6 -16 4 -35 -6 -47 -32 -48 -32 0
0 26 -3 33 -15 29 -10 -4 -15 0 -15 11 0 15 -2 16 -16 4 -15 -12 -16 -10 -12
25 6 50 -21 65 -75 42 -20 -8 -37 -11 -37 -5 0 5 -5 9 -10 9 -7 0 -7 -7 0 -20
7 -14 8 -26 1 -38 -9 -14 -10 -13 -11 10 0 32 -13 42 -40 33 -16 -5 -20 -15
-20 -46 0 -22 -5 -39 -11 -39 -8 0 -8 -5 1 -15 9 -11 16 -12 26 -5 10 9 11 7
7 -9 -4 -17 0 -21 23 -22 60 -3 59 -2 60 -49 1 -25 3 -49 4 -55 1 -5 1 -20 0
-33 -1 -13 3 -28 8 -35 5 -7 13 -40 17 -74 4 -35 10 -63 15 -63 4 0 11 -31 14
-70 4 -38 11 -70 17 -70 5 0 9 -18 9 -39 0 -22 4 -42 9 -45 4 -3 6 -16 4 -30
-3 -13 0 -27 6 -30 6 -4 11 -25 11 -47 0 -21 4 -39 10 -39 5 0 6 8 3 17 -5 12
-2 15 10 10 15 -6 17 2 17 54 0 50 3 62 18 65 14 4 17 16 15 70 -1 49 2 64 13
64 11 0 14 17 14 70 0 39 4 70 8 70 5 0 9 47 8 105 -1 58 3 104 7 102 12 -4 9
-928 -3 -942 -14 -16 -58 -7 -64 14 -3 9 -4 4 -2 -12 4 -32 5 -32 -38 -7 -21
11 -38 15 -41 9 -4 -5 -11 -6 -17 -3 -7 4 -8 2 -4 -4 4 -7 2 -12 -5 -12 -6 0
-9 -8 -6 -20 3 -11 1 -20 -4 -20 -5 0 -9 7 -9 15 0 8 -6 15 -12 15 -8 0 -9 3
-3 8 7 4 11 109 13 282 1 151 2 280 2 285 1 6 -2 29 -6 53 -5 29 -12 42 -23
42 -16 0 -17 9 -20 198 -1 23 -5 42 -11 42 -6 0 -10 -46 -10 -119 l0 -119 -32
3 c-37 4 -79 16 -120 35 -17 8 -25 19 -23 31 5 25 -5 30 -71 30 -52 1 -55 2
-49 23 4 11 8 32 10 46 11 71 21 95 41 92 18 -3 18 -3 0 10 -13 11 -16 21 -11
38 6 18 9 20 16 9 8 -12 11 -12 19 1 6 10 10 11 10 3 0 -27 17 -11 18 17 1 43
7 48 48 43 34 -5 35 -4 24 17 -7 13 -15 19 -19 14 -13 -19 -41 -15 -41 6 0 14
-5 20 -17 18 -12 -2 -17 3 -15 14 1 9 -2 19 -8 23 -5 3 -10 -2 -10 -13 0 -15
-9 -21 -37 -26 -56 -9 -63 -8 -63 10 0 12 4 14 13 7 18 -14 62 0 61 20 -1 9 2
17 7 17 5 0 6 7 3 15 -4 8 -10 12 -15 9 -5 -3 -9 1 -9 10 0 8 6 16 12 18 9 3
8 9 -5 22 -21 21 -22 27 -2 20 8 -4 15 -2 15 4 0 5 -7 12 -15 16 -9 3 -14 15
-11 34 2 16 -4 37 -12 48 -13 17 -14 13 -10 -38 4 -45 1 -58 -11 -63 -9 -3
-17 -1 -19 4 -8 25 -17 8 -16 -29 2 -34 -1 -40 -19 -40 -20 0 -20 -1 -3 -13
20 -15 19 -64 -2 -60 -6 2 -12 -3 -12 -10 0 -8 -4 -7 -10 3 -5 8 -10 34 -10
58 0 30 -4 42 -15 42 -9 0 -14 8 -12 23 2 21 -2 22 -84 25 l-86 3 -13 -41 c-9
-27 -18 -39 -27 -36 -7 3 -13 1 -13 -5 0 -6 -3 -8 -7 -6 -5 3 -16 2 -25 -2
-17 -6 -16 -7 2 -18 16 -10 18 -10 14 1 -3 8 3 12 17 11 33 -2 33 -18 0 -38
-37 -22 -61 -22 -61 1 -1 15 -2 15 -13 1 -8 -11 -30 -16 -74 -17 l-63 -1 0 72
c0 40 -3 96 -6 125 -6 48 -9 52 -33 52 l-26 0 1 143 c1 172 -5 251 -16 221 -6
-16 -16 -20 -39 -19 -18 1 -34 -2 -37 -7 -9 -13 -24 1 -24 23 0 11 -4 18 -8
15 -5 -3 -7 -30 -6 -60 3 -65 -7 -76 -35 -40 -12 15 -21 23 -22 18 0 -5 -4 0
-9 11 -7 17 -9 17 -9 3 -1 -21 -16 -24 -28 -5 -5 7 -10 -19 -13 -63 l-5 -75
-73 -1 -74 0 4 28 c4 22 1 28 -14 28 -15 0 -18 9 -19 48 -3 99 -8 124 -18 97
-11 -29 -91 -32 -98 -4 -14 54 -20 -3 -19 -216 0 -163 3 -234 10 -232 6 2 11
10 11 18 0 8 5 17 10 21 6 5 5 8 -2 8 -7 0 -13 9 -13 20 0 13 7 20 20 20 23 0
22 3 20 -205 -1 -75 -6 -135 -12 -143 -6 -7 -13 -55 -16 -107 -3 -60 -9 -95
-16 -95 -8 0 -10 -43 -8 -145 3 -121 0 -148 -12 -161 -18 -17 -18 -23 -23
-209 -2 -72 -6 -192 -9 -267 -4 -119 -3 -138 10 -138 11 0 16 15 19 63 l3 62
2 -62 2 -63 439 0 440 0 3 95 c2 52 -1 96 -5 98 -5 1 -5 15 -1 30 5 20 10 25
17 18 17 -17 31 -13 17 4 -7 8 -9 15 -5 15 4 0 2 7 -5 15 -6 8 -8 20 -4 27 10
16 10 50 0 66 -4 6 -4 17 0 24 13 20 10 60 -4 65 -10 4 -10 9 3 23 8 9 13 25
9 34 -3 9 -1 16 4 16 6 0 13 -8 15 -18 4 -13 5 -12 6 5 1 14 -6 24 -19 28 -11
3 -20 11 -20 16 0 5 9 9 20 9 29 0 29 55 0 63 -26 7 -26 27 0 27 16 0 20 7 20
30 0 23 -5 30 -19 30 -10 0 -21 9 -24 20 -4 17 0 20 29 20 l34 0 0 -380 c0
-373 0 -381 19 -370 24 12 42 13 22 1 -8 -6 187 -10 482 -10 l497 -1 0 67 c0
48 3 64 10 53 7 -11 10 4 10 49 0 55 2 62 15 51 8 -7 12 -16 9 -21 -3 -5 2 -9
10 -9 9 0 16 -7 16 -15 0 -8 8 -15 18 -14 10 0 12 3 5 6 -15 6 -17 43 -3 43 6
0 10 47 10 120 0 160 19 158 22 -2 l3 -123 28 -3 c25 -3 27 -1 27 32 0 32 3
36 25 36 14 0 25 -4 25 -10 0 -5 -9 -10 -20 -10 -20 0 -20 0 1 -21 13 -13 18
-28 15 -42 -3 -12 -3 -16 0 -9 3 6 18 12 32 12 21 0 24 -2 12 -10 -13 -9 -13
-11 0 -20 11 -7 7 -10 -17 -10 -31 0 -33 -2 -33 -35 0 -19 5 -35 10 -35 6 0
10 13 10 30 0 28 2 29 31 23 29 -6 31 -4 27 23 -3 26 0 29 22 26 14 -2 26 -5
28 -7 2 -2 3 -36 3 -76 0 -40 5 -79 11 -86 6 -7 31 -13 59 -13 41 0 48 3 52
23 l4 22 2 -22 c1 -22 4 -22 118 -22 81 0 120 4 125 12 6 9 8 9 8 0 0 -10 126
-13 559 -13 l558 0 7 77 c4 43 7 94 7 113 1 23 3 28 6 13 2 -13 9 -23 15 -23
6 0 6 -6 -2 -15 -13 -16 -7 -45 10 -45 6 0 10 30 10 75 0 67 2 75 19 75 11 0
22 6 25 13 5 9 7 9 12 -1 4 -8 17 -11 39 -6 30 5 35 3 40 -19 4 -14 4 -35 0
-46 -4 -12 -2 -21 4 -21 6 0 12 21 13 48 0 26 2 56 3 67 1 11 3 35 4 53 1 22
6 32 17 32 13 0 15 -24 13 -193 -1 -105 2 -192 7 -192 5 0 10 78 12 173 2 133
6 177 17 188 24 24 30 16 27 -40 -3 -46 3 -69 43 -162 59 -135 75 -167 82
-161 2 3 -18 58 -46 123 -55 126 -60 150 -35 140 9 -3 20 -6 25 -6 5 0 9 -20
9 -45 0 -41 2 -45 24 -45 22 0 23 -3 18 -45 -3 -30 -1 -45 7 -45 6 0 11 -15
11 -34 0 -24 5 -36 18 -40 9 -2 222 -4 474 -4 355 1 455 4 451 14 -2 6 0 15 6
19 6 3 11 -1 11 -11 0 -14 2 -15 17 -3 14 12 16 12 11 -2 -5 -13 10 -15 121
-15 69 1 127 4 129 9 1 4 2 21 2 37 0 28 -3 30 -34 30 -26 0 -36 5 -41 20 -3
11 -3 25 0 31 4 5 0 18 -9 28 -16 17 -15 18 21 15 21 -2 49 -6 61 -9 18 -4 22
-2 16 7 -4 7 2 5 13 -4 25 -22 43 -23 43 -2 0 14 -3 14 -15 4 -9 -8 -15 -9
-15 -2 0 18 14 21 53 9 l37 -12 0 -82 0 -82 135 0 c120 0 135 2 136 17 0 14 2
14 8 -3 8 -19 8 -19 19 0 10 18 11 18 12 3 0 -26 106 -26 113 -1 3 13 5 14 6
3 1 -11 12 -15 41 -15 22 0 40 3 40 6 0 11 -28 19 -44 13 -7 -3 -16 2 -20 11
-5 14 -1 16 27 10 17 -4 44 -13 60 -20 15 -8 25 -10 22 -5 -8 13 54 6 88 -10
21 -10 30 -11 39 -2 8 8 7 13 -8 18 -51 16 -50 16 -34 22 18 7 41 29 40 39 -1
4 3 9 9 11 5 2 9 -6 8 -17 0 -11 -4 -18 -8 -15 -16 9 -21 -19 -6 -33 17 -18
41 -8 33 13 -3 8 1 14 9 14 17 0 20 -16 5 -25 -16 -10 -12 -21 8 -22 9 -1 59
-5 110 -9 67 -5 92 -4 92 5 0 6 9 11 20 11 11 0 20 -4 20 -10 0 -14 27 -12 33
3 3 9 9 9 26 -1 28 -16 48 -15 55 4 4 11 16 14 47 11 22 -2 44 -8 47 -14 9
-13 70 -15 77 -2 7 11 65 12 65 2 0 -5 27 -8 60 -8 58 0 79 12 64 36 -3 5 4 9
15 9 20 0 21 6 21 90 0 80 -2 90 -18 90 -10 0 -23 -5 -30 -12 -9 -9 -13 -7
-18 5 -3 9 -16 17 -28 17 -12 0 -16 -3 -10 -8 13 -8 24 -72 12 -72 -4 0 -8 10
-8 23 0 14 -11 29 -27 39 -19 12 -23 18 -12 18 12 0 16 9 16 35 -1 24 -5 34
-14 31 -15 -6 -69 41 -60 51 4 3 7 1 7 -5 0 -6 7 -9 15 -6 20 8 9 24 -16 24
-11 0 -17 5 -14 10 4 6 14 9 23 8 11 -2 18 5 20 20 3 18 -1 22 -22 22 -18 0
-24 4 -20 14 3 8 13 12 26 8 16 -4 19 -1 16 14 -2 13 -10 18 -26 16 -15 -2
-22 2 -22 12 0 10 9 16 25 16 30 0 34 27 5 32 -27 4 -27 22 0 26 26 4 23 37
-3 37 -17 0 -19 8 -9 34 3 8 0 17 -6 19 -22 7 -13 22 13 22 14 0 25 5 25 10 0
6 -9 10 -19 10 -10 0 -22 7 -25 16 -9 23 -8 24 19 24 18 0 25 5 25 20 0 15 -7
20 -25 20 -14 0 -25 5 -25 10 0 6 4 10 9 10 5 0 12 8 14 18 4 16 5 16 6 0 1
-22 17 -23 25 -2 9 23 8 24 -24 24 -16 0 -30 5 -30 10 0 10 13 14 43 11 11 -2
17 5 17 18 0 17 6 21 35 21 21 0 35 -5 36 -12 1 -20 -3 -430 -5 -535 -2 -100
-1 -102 57 -110 15 -2 27 1 27 6 0 6 -9 11 -20 11 -11 0 -20 5 -20 10 0 6 -7
10 -15 10 -8 0 -15 5 -15 10 0 6 7 10 15 10 8 0 15 7 15 16 0 8 -4 12 -10 9
-5 -3 -10 -1 -10 4 0 6 6 11 13 11 6 0 4 5 -5 11 -21 12 -24 34 -4 26 8 -3 16
2 19 15 4 14 0 22 -14 25 -22 6 -26 23 -4 23 21 0 19 27 -2 39 -16 10 -16 11
5 17 l23 7 -21 19 c-22 21 -19 38 8 38 16 1 16 2 0 14 -10 7 -15 16 -11 19 3
4 0 7 -7 7 -7 0 -10 3 -6 7 4 5 13 8 19 8 22 0 18 32 -5 38 -20 6 -19 20 3 23
5 1 11 2 14 3 3 0 -3 11 -14 23 -21 22 -19 38 5 38 8 0 14 9 14 20 0 13 -5 18
-15 14 -20 -8 -19 13 1 24 15 8 15 10 0 15 -22 9 -21 47 2 47 16 1 16 1 0 11
-28 16 -21 24 22 27 l40 2 0 -183 0 -183 48 1 c43 0 47 2 50 26 2 21 7 26 23
22 17 -5 20 -1 19 18 -4 41 -1 49 20 49 20 0 20 7 20 535 -1 334 -5 537 -11
540 -5 4 -23 7 -39 7 -25 1 -30 5 -30 25 0 18 -5 23 -24 23 -13 0 -26 5 -28
11 -3 9 -17 9 -56 -1 -29 -7 -62 -10 -72 -7 -11 3 -20 0 -20 -5 0 -6 -7 -5
-16 3 -14 11 -15 9 -11 -19 5 -30 3 -32 -23 -32 -16 0 -31 4 -34 9 -3 5 -24
11 -45 13 -22 2 -37 0 -35 -4 7 -11 -12 -16 -85 -21 -53 -3 -61 -1 -46 9 10 7
15 19 12 27 -7 19 -47 29 -47 12 0 -20 -19 -28 -34 -16 -9 8 -13 7 -13 -4 0
-10 11 -15 31 -15 21 0 27 -3 17 -9 -7 -5 -22 -6 -32 -4 -14 4 -19 0 -19 -16
0 -11 -4 -21 -10 -21 -5 0 -10 -7 -10 -16 0 -8 -5 -12 -11 -8 -6 3 -9 17 -6
30 2 13 0 24 -4 24 -5 0 -9 -16 -9 -35 l0 -35 -102 2 c-57 1 -109 -1 -115 -5
-9 -6 -13 -2 -13 11 0 11 -7 23 -16 26 -21 8 -24 8 -24 -4 0 -5 7 -10 15 -10
8 0 15 -4 15 -9 0 -5 -7 -11 -15 -15 -8 -3 -15 -1 -15 5 0 6 -3 8 -7 6 -5 -3
-37 -8 -73 -11 -71 -7 -81 -11 -51 -21 17 -5 20 -16 23 -95 2 -50 -1 -90 -6
-90 -4 0 -6 -9 -3 -20 6 -24 -2 -25 -29 -4 -11 9 -15 17 -8 20 6 3 9 15 7 28
-4 17 -10 22 -24 19 -14 -4 -19 0 -19 16 0 17 -6 21 -30 21 -20 0 -30 5 -30
15 0 8 -4 15 -10 15 -5 0 -13 18 -16 40 -5 32 -11 40 -28 40 -12 0 -27 -5 -33
-11 -7 -7 -17 -8 -25 -3 -7 5 -21 7 -30 6 -10 -2 -27 3 -39 12 -18 12 -27 13
-68 0 -25 -7 -48 -14 -51 -14 -3 0 -5 64 -3 142 2 105 0 144 -9 150 -17 10
-31 10 -24 0 3 -5 -1 -9 -8 -9 -7 0 -19 9 -25 19 -10 17 -9 20 8 25 12 3 21
10 21 15 0 6 -9 8 -20 5 -16 -4 -20 0 -20 20 0 13 4 22 9 19 5 -3 12 1 15 10
4 12 2 15 -9 10 -8 -3 -15 -1 -15 5 0 6 10 9 23 7 12 -2 22 -7 22 -13 0 -5 4
-17 10 -25 8 -13 7 -13 -8 -1 -13 10 -17 11 -17 1 0 -7 7 -18 17 -25 18 -13
10 -35 -13 -35 -28 0 -13 -15 16 -16 17 -1 30 3 30 8 0 5 -4 6 -10 3 -5 -3
-10 -2 -10 4 0 5 6 12 13 14 9 4 9 7 -1 15 -7 5 -10 16 -7 25 4 8 1 25 -5 37
-9 16 -19 20 -43 18 -18 -2 -31 -6 -29 -10 1 -5 2 -64 2 -132 0 -115 2 -125
19 -131 11 -3 23 -15 26 -26 4 -10 11 -17 16 -14 5 4 9 2 9 -4 0 -5 -5 -11
-11 -13 -8 -3 -6 -10 5 -20 18 -19 21 -33 4 -22 -7 4 -8 3 -4 -4 4 -7 2 -12
-4 -12 -7 0 -9 -8 -5 -19 3 -11 1 -22 -5 -26 -6 -4 -10 4 -10 19 0 16 -6 26
-15 26 -17 0 -20 35 -4 46 6 3 15 0 20 -7 6 -10 8 -7 6 9 -1 25 -9 27 -39 11
-14 -8 -23 -8 -27 -1 -3 6 -32 9 -66 7 -33 -2 -68 -4 -77 -4 -12 -1 -18 -9
-18 -27 0 -22 -3 -24 -14 -15 -11 9 -16 9 -21 0 -6 -8 -10 -8 -15 2 -7 10 -11
10 -24 0 -11 -9 -16 -10 -16 -2 0 15 -27 14 -33 -1 -4 -10 -6 -10 -6 0 -1 6
-8 12 -18 12 -9 0 -13 3 -10 6 11 11 51 11 66 0 10 -8 15 -8 18 2 3 6 14 12
26 12 11 0 17 3 13 7 -4 4 -35 7 -69 8 -55 0 -62 2 -62 20 0 15 -7 20 -27 19
-23 0 -28 4 -28 23 0 21 -4 23 -55 23 -48 0 -55 2 -55 20 0 17 -7 20 -39 20
-22 0 -42 5 -44 13 -4 9 -8 8 -16 -3 -9 -12 -11 -11 -11 7 0 41 -11 53 -46 53
l-35 0 1 373 c0 204 1 405 0 445 l0 72 -33 0 c-18 0 -37 4 -43 9 -25 23 -145
51 -229 53 -79 2 -97 -1 -145 -23 l-55 -26 48 5 c32 3 47 1 47 -7 0 -16 -24
-22 -122 -30 -5 -1 -8 -5 -8 -11 0 -8 72 -8 110 1 11 3 16 -9 20 -53 5 -54 -1
-75 -13 -45 -4 10 -6 10 -6 0 -1 -7 -7 -13 -14 -13 -16 0 -15 26 -16 -442 -1
-298 -3 -328 -18 -328 -15 0 -15 -1 0 -18 11 -12 13 -22 7 -32 -8 -13 -10 -12
-10 2 0 9 -5 20 -11 24 -8 4 -9 0 -4 -15 4 -12 2 -21 -4 -21 -6 0 -12 10 -12
23 -1 19 -2 19 -6 3 -4 -15 -7 -16 -14 -5 -6 11 -9 8 -9 -8 0 -13 5 -23 10
-23 6 0 10 -6 10 -14 0 -11 -17 -14 -72 -14 -46 0 -62 3 -43 7 l30 6 3 209 c2
148 0 211 -8 216 -7 4 -13 43 -14 96 -2 49 -7 97 -11 107 -4 10 -3 18 4 18 26
3 30 4 36 11 4 3 -3 9 -14 13 -14 4 -18 11 -14 23 6 15 5 15 -10 3 -10 -7 -17
-19 -16 -25 4 -29 -2 -46 -16 -46 -9 0 -18 7 -21 15 -4 8 -10 12 -15 9 -5 -3
-7 -10 -4 -15 4 -5 -1 -9 -10 -9 -8 0 -18 7 -21 15 -11 26 -24 16 -20 -16 2
-17 -3 -36 -10 -44 -8 -8 -10 -16 -6 -19 5 -3 7 -136 4 -297 l-5 -291 22 7
c30 9 61 -3 61 -26 0 -10 4 -19 9 -19 5 0 12 -7 15 -16 4 -12 2 -15 -9 -10 -9
3 -15 0 -15 -9 0 -9 10 -13 33 -12 l32 2 1 -148 c1 -81 -3 -150 -7 -153 -5 -3
-9 47 -9 110 0 71 -4 116 -10 116 -6 0 -10 -45 -10 -115 0 -77 -4 -115 -11
-115 -6 0 -9 7 -5 15 3 8 2 15 -2 15 -4 0 -5 -79 -4 -176 3 -133 1 -174 -8
-169 -6 4 -9 16 -7 26 4 14 1 19 -11 17 -15 -3 -18 13 -22 132 -3 74 -7 110
-9 80 -1 -30 -4 -86 -6 -124 -2 -39 0 -75 6 -82 6 -8 4 -15 -6 -24 -13 -11
-15 5 -15 138 0 84 4 153 9 157 14 8 12 267 -1 282 -7 9 -7 13 1 13 6 0 11 7
11 16 0 9 -6 14 -12 11 -9 -2 -13 -30 -12 -95 0 -51 -3 -92 -8 -92 -4 0 -8 7
-8 15 0 8 -4 15 -10 15 -5 0 -10 -7 -10 -17 0 -9 -3 -13 -7 -9 -11 11 -12 52
-12 401 -1 211 -4 305 -11 295 -5 -8 -11 -69 -12 -135 -1 -66 -3 -98 -5 -70
-3 27 -9 55 -14 62 -6 6 -9 22 -7 35 2 19 -2 24 -24 26 -24 3 -28 8 -28 33 0
27 -3 29 -35 29 -32 0 -35 -2 -35 -30 0 -26 -3 -30 -29 -30 -25 0 -28 -3 -24
-21 3 -11 1 -30 -5 -42 -6 -12 -13 -40 -14 -62 -3 -40 -4 -41 -49 -36 -8 1
-10 14 -6 36 3 19 2 35 -4 35 -5 0 -9 -44 -10 -97 -1 -193 -11 -548 -15 -553
-3 -2 -9 1 -13 9 -13 20 -21 -11 -21 -77 -1 -50 -2 -55 -14 -40 -16 21 -30 24
-19 4 10 -18 4 -126 -7 -126 -5 0 -11 10 -13 23 -2 12 -3 -6 -1 -41 2 -34 -1
-73 -5 -85 -9 -22 -11 -21 -24 23 -2 8 -3 -22 -1 -67 3 -66 0 -83 -11 -83 -7
0 -15 10 -17 23 -2 12 -3 -36 -3 -106 1 -118 -7 -160 -21 -124 -3 8 -14 17
-25 20 -16 4 -18 11 -13 31 4 16 2 26 -5 26 -6 0 -11 -9 -11 -20 0 -11 -4 -20
-10 -20 -5 0 -10 9 -10 20 0 11 -4 20 -10 20 -5 0 -10 -9 -10 -20 0 -11 -4
-20 -10 -20 -5 0 -10 -11 -10 -24 0 -20 6 -25 38 -31 l39 -6 -4 -245 -4 -244
33 -2 c18 0 38 -2 43 -3 6 -2 21 -4 35 -5 18 -2 20 -4 8 -7 -10 -2 -18 -9 -18
-15 0 -6 8 -17 18 -24 16 -13 16 -13 -2 -14 -14 0 -17 -5 -12 -24 3 -14 1 -28
-5 -32 -8 -5 -10 4 -7 30 2 20 1 36 -3 36 -3 0 -5 12 -3 28 2 15 1 19 -2 10
-3 -10 -10 -18 -15 -18 -6 0 -7 5 -4 10 3 6 1 10 -4 10 -6 0 -11 -6 -12 -12 0
-7 -4 -4 -9 7 -5 11 -9 14 -9 6 -1 -11 -4 -11 -16 -1 -12 10 -15 10 -15 -4 0
-9 7 -16 15 -16 9 0 15 -9 14 -22 0 -13 -3 -17 -6 -10 -7 17 -23 15 -23 -3 0
-8 7 -15 15 -15 10 0 15 -9 14 -27 -1 -17 -3 -21 -6 -10 -2 9 -9 17 -15 17 -5
0 -8 -7 -4 -15 3 -9 0 -15 -9 -15 -11 0 -15 12 -15 45 0 41 -2 45 -25 45 -22
0 -25 -4 -25 -35 0 -41 -19 -48 -21 -7 -1 15 -1 33 0 39 2 15 -15 17 -24 3
-10 -16 -25 -12 -19 5 4 8 1 15 -5 15 -6 0 -11 -9 -11 -20 0 -11 -4 -20 -10
-20 -5 0 -10 9 -10 20 0 15 -7 20 -25 20 -14 0 -25 -4 -25 -9 0 -5 9 -7 20 -4
11 3 20 0 20 -6 0 -6 -9 -12 -20 -13 -11 0 -26 -1 -32 -2 -7 -1 -13 8 -13 18
0 11 -6 21 -14 24 -10 3 -12 -1 -8 -14 7 -18 6 -18 -7 -1 -16 20 -24 22 -22 5
0 -7 -3 -13 -9 -13 -5 0 -9 5 -7 11 3 15 -51 39 -56 25 -10 -31 -22 -4 -22 49
0 53 -2 60 -20 60 -11 0 -20 5 -20 10 0 6 -11 10 -25 10 -20 0 -25 5 -25 24 0
23 5 25 48 28 55 3 50 -17 51 204 l1 142 33 -2 c29 -1 32 1 29 26 -2 24 1 28
23 28 28 0 28 1 29 105 1 58 2 60 29 63 26 3 27 6 27 58 0 53 0 54 30 54 17 0
29 3 29 8 -1 4 -1 28 0 55 1 43 3 47 26 47 24 0 25 3 25 55 0 54 0 55 30 55
23 0 30 4 30 20 0 13 -7 20 -20 20 -12 0 -20 -7 -20 -17 0 -14 -4 -13 -21 6
-12 12 -24 19 -28 15 -3 -4 0 -9 7 -11 19 -7 14 -22 -7 -20 -20 1 -37 36 -23
47 4 3 6 12 6 20 -1 8 -2 24 -3 35 -1 23 -41 30 -41 8 0 -7 7 -13 15 -13 8 0
15 -5 15 -10 0 -6 -7 -13 -15 -16 -8 -4 -15 -15 -15 -25 0 -20 -15 -26 -25 -9
-3 6 -2 10 3 10 12 0 14 68 2 75 -30 19 1 25 114 22 l124 -2 4 40 c4 53 -1 87
-13 80 -5 -4 -9 16 -9 45 0 73 -36 101 -83 66 -15 -12 -16 -14 -2 -20 17 -6
21 -36 5 -36 -6 0 -13 7 -16 15 -4 11 -21 15 -55 15 -27 0 -49 4 -49 8 0 21
-44 28 -74 13 -24 -12 -27 -16 -13 -19 19 -4 23 -17 7 -27 -17 -10 -11 -25 10
-25 13 0 20 -7 20 -20 0 -18 7 -20 60 -20 57 0 60 1 60 25 0 18 4 23 15 19 20
-8 19 -50 -1 -58 -8 -3 -12 -10 -9 -16 4 -6 11 -8 16 -5 5 4 9 -1 9 -10 0 -11
5 -15 15 -11 8 3 15 1 15 -4 0 -5 18 -3 40 5 38 13 40 13 40 -5 0 -10 -4 -22
-10 -25 -5 -3 -10 1 -10 9 0 9 -4 16 -10 16 -5 0 -10 -8 -10 -17 0 -15 -2 -16
-10 -3 -6 9 -13 11 -17 5 -5 -5 -22 -11 -40 -12 -24 -2 -33 3 -38 18 -4 10
-11 16 -17 13 -7 -4 -6 -9 2 -14 8 -5 5 -9 -9 -13 -12 -3 -24 -1 -27 5 -4 6
-9 5 -15 -3 -6 -10 -13 -10 -33 -1 -14 6 -26 8 -26 3 0 -10 -68 -13 -74 -3 -3
5 -1 14 4 22 7 11 11 11 24 1 13 -11 16 -11 16 3 0 9 -9 21 -20 28 -24 15 -26
55 -4 79 23 26 8 42 -32 36 l-34 -6 7 631 c5 491 3 629 -6 624 -22 -14 -41 15
-41 64 0 38 4 51 23 63 21 14 19 15 -26 10 l-48 -6 5 164 c4 148 1 178 -23
309 -15 80 -33 155 -39 167 -7 12 -14 39 -17 60 -2 21 -14 50 -25 65 -11 15
-20 40 -20 55 0 16 -6 37 -13 48 -7 11 -19 55 -26 98 -14 89 -31 299 -25 309
2 4 0 9 -4 12 -5 3 -12 -38 -17 -92z m1618 -1739 c-1 -87 -2 -256 -2 -375 -1
-201 -2 -218 -18 -218 -17 0 -18 23 -15 362 2 200 5 369 7 376 2 6 10 12 17
12 10 0 13 -35 11 -157z m198 -588 c15 -5 19 -16 19 -54 0 -26 -3 -51 -6 -54
-12 -11 -44 13 -44 33 0 28 -20 25 -21 -2 0 -22 -1 -22 -11 2 -11 25 -11 25
-15 3 -3 -13 -9 -23 -14 -23 -5 0 -9 10 -10 23 0 21 -1 21 -9 2 -5 -14 -2 -26
11 -41 11 -11 19 -26 19 -32 0 -7 5 -12 10 -12 14 0 12 24 -2 39 -11 10 -10
11 5 6 12 -5 17 -18 17 -51 0 -26 5 -44 11 -44 7 0 9 10 7 24 -3 14 -1 30 3
38 4 7 3 19 -4 28 -11 13 -10 13 5 1 10 -7 16 -16 14 -20 -3 -4 -1 -13 5 -21
6 -11 9 -12 9 -2 0 7 5 10 10 7 15 -9 12 -72 -4 -78 -7 -3 -16 -15 -19 -26 -4
-17 -2 -19 13 -11 10 6 20 10 22 10 3 0 5 -58 5 -130 1 -71 -3 -130 -8 -130
-5 0 -9 7 -9 15 0 8 -4 15 -9 15 -11 0 -21 -51 -21 -110 0 -27 -6 -52 -13 -58
-10 -9 -12 2 -9 53 3 44 1 65 -7 65 -6 0 -12 -8 -13 -17 -7 -75 -5 -100 9
-115 12 -13 14 -55 11 -255 -2 -131 -7 -241 -12 -244 -4 -4 1 -16 12 -27 12
-12 17 -24 13 -27 -5 -2 -16 7 -25 20 -9 14 -21 23 -26 20 -5 -3 0 -15 10 -25
24 -24 28 -49 5 -30 -8 7 -15 8 -15 2 0 -5 7 -15 15 -22 16 -13 21 -35 6 -25
-5 3 -11 -7 -13 -22 -2 -21 -8 -27 -22 -25 -15 3 -18 -2 -14 -28 3 -17 1 -33
-4 -36 -10 -6 -39 21 -31 29 3 3 -6 9 -21 13 -30 7 -29 5 -16 38 7 21 6 26 -5
26 -8 0 -15 5 -15 10 0 6 6 10 13 10 26 0 14 28 -13 32 -26 4 -27 2 -26 -33 0
-21 4 -35 7 -33 4 2 9 -14 11 -36 4 -49 -9 -53 -18 -5 -3 19 -12 39 -20 46 -8
7 -11 21 -7 40 3 18 1 29 -6 29 -6 0 -11 -16 -11 -35 0 -19 -5 -35 -10 -35
-11 0 -13 210 -2 211 4 0 19 2 35 4 16 2 27 -1 27 -9 0 -19 38 -14 43 6 3 10
1 18 -4 18 -5 0 -9 -4 -9 -10 0 -5 -4 -10 -10 -10 -5 0 -7 7 -4 15 5 11 2 13
-10 9 -14 -5 -16 4 -16 65 0 51 3 70 13 68 12 -2 13 5 17 98 1 32 3 36 10 20
8 -19 9 -19 9 2 1 12 -4 23 -11 25 -7 3 -8 10 -3 17 5 10 23 12 65 7 37 -4 61
-3 65 4 4 6 -6 10 -25 10 -25 0 -31 3 -26 16 3 9 6 61 6 116 l0 100 25 -6 26
-7 -2 148 c0 82 0 153 1 158 5 24 -1 55 -10 55 -5 0 -10 -20 -10 -44 0 -25 -5
-48 -11 -51 -7 -5 -10 16 -8 65 2 58 -1 75 -14 85 -10 7 -17 20 -17 29 0 25
-17 19 -22 -9 -3 -13 -2 -23 1 -20 20 12 34 -17 32 -71 -1 -66 -11 -88 -11
-26 0 23 -4 42 -10 42 -5 0 -10 -14 -10 -31 0 -16 -4 -28 -9 -24 -6 3 -9 23
-9 45 0 24 -6 46 -16 56 -12 12 -16 30 -14 63 l3 46 45 5 c83 10 131 11 151 5z
m87 -101 c12 -4 22 -14 22 -24 0 -10 7 -21 16 -24 10 -4 14 -16 13 -33 -2 -16
0 -33 4 -40 4 -6 4 -18 1 -27 -5 -12 -2 -15 10 -10 19 7 21 25 4 42 -9 9 -8
12 5 12 15 0 17 -16 17 -156 0 -85 -3 -153 -8 -150 -4 2 -6 56 -5 119 l2 114
-27 -1 c-26 -1 -47 -36 -22 -36 7 0 10 7 6 15 -3 9 0 15 8 15 10 0 13 -27 14
-115 1 -94 -2 -115 -14 -115 -8 0 -15 8 -15 18 -1 16 -2 16 -6 0 -2 -10 -10
-18 -17 -18 -10 0 -12 17 -10 68 2 37 4 103 3 147 0 44 0 90 0 102 0 12 -4 25
-9 28 -6 4 -10 -57 -10 -169 0 -111 -4 -176 -10 -176 -10 0 -13 28 -10 120 6
177 5 180 -10 180 -12 0 -12 2 -2 9 7 4 15 25 16 46 2 20 9 41 16 45 9 6 6 10
-11 13 -13 2 -17 5 -9 6 8 0 25 -2 38 -5z m-2298 -295 c0 -15 6 -29 13 -32 16
-6 14 -380 -3 -385 -7 -3 -7 -9 2 -20 11 -13 10 -14 -9 -4 -12 7 -35 12 -52
12 -21 0 -31 5 -31 15 0 8 -4 15 -10 15 -5 0 -10 -7 -10 -15 0 -8 -9 -15 -21
-15 -14 0 -18 4 -12 13 8 13 10 18 12 45 1 15 3 15 11 2 8 -12 10 -9 10 13 0
16 3 26 8 24 4 -3 9 32 10 76 2 45 8 85 13 88 6 3 9 10 8 15 -1 5 -1 35 0 67
1 54 2 57 26 57 28 0 35 27 10 36 -21 9 -19 20 5 20 15 0 20 -7 20 -27z m3205
-331 c0 -32 3 -62 7 -64 4 -3 8 -43 8 -90 0 -83 0 -84 25 -84 18 0 23 -4 18
-16 -6 -15 -4 -15 19 0 27 18 58 12 58 -10 0 -8 25 -28 55 -45 30 -17 55 -35
55 -40 0 -5 -44 -9 -99 -9 l-98 0 5 25 c4 22 1 25 -24 26 -26 1 -65 4 -102 8
-10 1 -12 29 -10 119 3 105 5 117 21 114 23 -4 22 6 -5 27 -15 12 -18 20 -10
25 8 4 12 0 12 -11 0 -15 2 -16 10 -3 13 21 13 80 -1 80 -7 0 -9 -10 -7 -25 3
-14 1 -25 -3 -25 -5 0 -9 15 -9 33 0 32 1 32 38 29 l38 -4 -1 -60z m1191 -5
l-1 -33 82 0 c69 0 81 2 77 15 -8 19 -4 19 34 -1 38 -18 42 -29 8 -20 -12 3
-26 3 -30 -1 -4 -4 -64 -6 -134 -4 -70 2 -166 4 -213 5 -80 1 -85 2 -82 21 4
19 4 19 -10 3 -9 -12 -28 -18 -55 -18 -36 0 -40 2 -34 22 3 14 2 19 -6 14 -7
-4 -12 -13 -12 -21 0 -11 -26 -14 -137 -13 -130 1 -137 6 -28 21 13 1 19 9 17
20 -2 14 5 17 47 17 27 0 53 5 56 10 3 6 11 10 16 10 6 0 8 -3 5 -8 -2 -4 44
-7 104 -7 59 0 106 3 103 8 -2 4 2 7 11 7 8 0 16 -5 18 -11 2 -7 12 -7 28 -1
14 5 33 6 44 3 30 -11 76 -1 77 18 0 12 2 11 8 -4 5 -11 8 -35 7 -52z m-6869
-51 c9 -5 9 -19 3 -47 -5 -22 -10 -68 -10 -102 0 -44 -4 -63 -12 -63 -10 0
-12 -32 -10 -135 3 -113 1 -137 -12 -151 -17 -16 -18 -25 -21 -241 -1 -118 -6
-155 -19 -142 -2 2 -7 74 -10 160 -3 87 -8 163 -11 171 -6 15 29 58 46 58 11
0 6 207 -7 298 -4 26 -2 42 4 42 6 0 13 -12 15 -27 2 -16 5 -3 6 28 0 30 6 60
12 66 9 9 9 19 -1 42 -16 40 -3 62 27 43z m6213 -10 c0 -4 -4 -12 -9 -17 -6
-6 -11 -36 -12 -67 -2 -42 -6 -58 -16 -58 -12 0 -11 -3 1 -16 23 -22 21 -24
-28 -24 -30 0 -46 5 -50 16 -3 8 -2 12 4 9 6 -3 10 -1 10 4 0 6 -7 11 -15 11
-8 0 -15 -9 -15 -20 0 -15 -7 -20 -25 -20 -25 0 -25 0 -21 78 2 42 5 85 5 95
1 15 12 17 86 17 47 0 85 -4 85 -8z m815 -14 c2 -2 5 -47 7 -100 l5 -98 -41 1
c-23 0 -35 3 -28 6 11 4 18 33 8 33 -2 0 -11 3 -20 6 -12 5 -16 0 -16 -20 0
-24 -3 -26 -45 -26 -46 0 -60 14 -25 25 22 7 27 30 9 41 -6 3 -15 1 -19 -6 -7
-11 -12 -10 -25 3 -15 15 -15 17 -1 17 23 0 21 56 -1 69 -12 7 -14 13 -7 18 6
5 13 15 17 25 5 14 19 15 93 12 48 -2 88 -5 89 -6z m-6999 -170 c4 -18 7 -193
6 -388 -1 -195 -2 -359 -2 -364 0 -6 -7 -1 -15 10 -11 15 -14 54 -15 182 0
107 4 162 11 162 11 0 6 326 -6 393 -9 46 9 51 21 5z m6126 -30 c-1 -9 2 -19
8 -23 5 -3 10 3 10 14 0 11 4 22 9 25 5 3 7 -22 6 -57 -2 -34 -4 -92 -4 -129
-1 -38 -5 -68 -10 -68 -4 0 -7 12 -5 26 1 15 -1 36 -5 48 -6 15 -9 6 -9 -32
-1 -28 2 -52 7 -52 13 0 18 -31 10 -65 l-7 -30 -1 32 c-1 33 -22 53 -51 50 -8
-1 -15 3 -15 8 0 6 3 9 6 8 4 -1 9 7 12 17 6 22 -8 28 -16 8 -3 -7 -6 -3 -6
10 -1 13 5 22 13 22 8 0 13 7 12 15 -3 23 -16 30 -17 9 0 -18 -1 -18 -8 1 -5
11 -5 25 0 31 5 6 6 14 2 18 -4 4 0 4 10 0 9 -3 17 -2 17 4 0 5 -10 13 -22 17
-18 5 -19 8 -8 12 29 11 40 43 15 43 -8 0 -15 4 -15 9 0 5 7 11 15 15 8 3 15
13 15 21 0 10 7 15 18 13 9 -2 16 -11 14 -20z m368 -18 c0 -13 5 -18 16 -13 8
3 13 12 10 19 -3 9 2 14 14 14 19 0 20 -7 19 -154 l0 -155 -27 12 c-38 16 -37
15 -18 36 17 18 17 20 -1 30 -15 9 -16 12 -4 20 9 6 11 18 7 35 -4 16 -2 26 5
26 16 0 6 35 -11 36 -35 2 -41 5 -35 14 3 6 17 10 31 10 15 0 23 4 19 11 -4 6
-13 8 -19 6 -16 -7 -40 30 -25 39 6 3 8 12 5 20 -3 8 -1 14 4 14 6 0 10 -9 10
-20z m162 -27 c1 -27 1 -100 -2 -164 -5 -107 -6 -116 -23 -110 -10 4 -17 11
-15 16 2 6 -8 11 -22 13 -22 2 -25 7 -24 40 1 34 4 37 28 34 14 -1 26 2 26 8
0 5 -5 10 -11 10 -5 0 -7 5 -4 10 3 6 1 10 -4 10 -6 0 -11 -4 -11 -10 0 -18
-18 -10 -23 10 -4 16 0 20 19 20 13 0 24 2 24 4 0 2 3 11 6 20 5 12 0 16 -19
16 -26 0 -49 19 -25 21 7 1 19 2 27 3 26 2 23 25 -3 32 -35 8 -33 27 2 22 25
-4 28 -1 24 19 -3 16 0 23 11 23 11 0 16 -13 19 -47z m107 26 c4 -12 1 -12
-15 1 -18 14 -18 14 -1 -6 20 -24 23 -84 5 -84 -9 0 -10 -3 -2 -8 13 -8 14
-233 1 -225 -5 3 -5 -3 0 -13 5 -11 8 -37 6 -59 -2 -22 -3 -61 -4 -87 -1 -80
-14 -54 -15 30 0 42 -4 98 -8 125 -6 41 -10 47 -31 47 -13 0 -27 5 -30 10 -3
6 4 10 17 10 13 0 32 7 43 16 18 13 17 14 -14 8 -23 -5 -36 -3 -42 7 -14 23
-10 29 20 29 16 0 31 6 34 15 5 11 1 12 -18 5 -23 -9 -29 -6 -26 13 0 4 -4 7
-10 7 -5 0 -7 5 -4 10 3 6 17 10 31 10 19 0 25 5 22 18 -2 9 -10 18 -18 18 -8
1 -21 2 -28 3 -24 2 -1 21 26 21 27 0 27 0 -7 21 -27 16 -31 23 -20 30 8 5 23
9 34 10 14 0 15 2 5 6 -42 14 -43 17 -10 23 44 9 53 7 59 -11z m-6111 -62 c2
-15 7 -25 12 -22 5 3 8 -7 6 -22 -1 -22 -6 -27 -21 -25 -17 2 -17 1 -5 -7 25
-17 38 -13 52 19 7 17 16 30 21 30 4 0 3 -9 -3 -20 -7 -13 -10 -87 -9 -203 1
-150 5 -185 18 -202 15 -19 15 -19 -3 -5 -18 14 -19 13 -13 -12 4 -15 3 -30
-3 -33 -6 -4 -10 36 -10 114 0 74 -4 121 -10 121 -5 0 -11 10 -11 23 -1 16 -2
18 -6 5 -8 -31 -23 -20 -23 16 0 19 -5 38 -11 41 -6 4 -8 22 -4 46 4 24 3 39
-3 39 -6 0 -10 9 -9 20 1 12 8 20 20 20 10 0 17 5 14 13 -2 6 -12 12 -23 12
-14 0 -20 8 -22 33 -3 30 -1 33 20 30 17 -2 24 -11 26 -31z m5742 -154 c0 -72
-1 -74 -22 -68 -23 6 -23 6 -3 -10 13 -11 37 -16 70 -15 79 3 95 1 95 -10 0
-5 -6 -10 -14 -10 -12 0 -13 -14 -9 -75 l5 -76 -34 19 c-18 10 -34 28 -36 40
-4 29 22 29 36 0 10 -23 11 -23 11 4 1 16 -2 27 -6 27 -28 -4 -45 2 -39 16 3
8 1 25 -4 37 -8 22 -9 22 -9 -4 -1 -16 -6 -28 -12 -28 -6 0 -8 9 -4 21 5 15 4
19 -4 15 -6 -4 -23 2 -37 13 -15 12 -32 21 -39 21 -6 0 -18 11 -25 24 -16 32
-36 39 -37 15 -1 -11 3 -16 11 -13 8 3 16 -2 20 -12 5 -13 2 -15 -19 -10 -14
4 -25 3 -25 -2 0 -13 -40 -9 -41 5 -1 7 -2 18 -3 25 -2 19 -24 20 -29 1 -4
-15 -5 -14 -6 4 -1 14 6 24 19 28 11 3 20 11 20 16 0 5 9 19 20 31 15 16 17
25 8 35 -9 11 2 13 66 12 l76 -1 0 -75z m-1692 40 c-2 -10 -11 -17 -21 -17
-12 1 -17 -6 -17 -22 0 -13 4 -24 9 -24 5 0 3 -13 -5 -30 -9 -16 -19 -30 -24
-30 -4 0 -10 -9 -13 -20 -8 -32 7 -23 36 21 17 25 25 49 22 60 -4 12 1 23 14
31 12 7 22 22 22 33 1 17 2 17 6 3 2 -10 9 -18 15 -18 7 0 7 -4 1 -12 -19 -25
-23 -47 -7 -41 7 3 14 0 14 -6 0 -6 -4 -11 -10 -11 -5 0 -10 -7 -10 -15 0 -8
5 -15 10 -15 6 0 4 -10 -5 -23 -18 -28 -8 -45 11 -19 12 15 13 12 14 -24 l0
-40 45 -1 c25 -1 42 3 39 8 -3 5 0 9 5 9 17 0 13 -19 -9 -37 -24 -21 -26 -33
-5 -33 8 0 15 -6 15 -14 0 -8 3 -17 8 -19 4 -3 7 5 7 18 0 13 -3 21 -7 18 -10
-5 -11 21 -2 30 4 3 16 1 28 -5 11 -7 24 -11 28 -10 3 1 7 -50 7 -114 l1 -115
-37 3 c-23 2 -37 8 -36 15 2 7 -5 17 -16 22 -16 9 -17 7 -13 -14 5 -28 -14
-35 -21 -7 -4 13 -5 11 -6 -5 0 -13 -5 -23 -11 -23 -5 0 -8 14 -6 31 3 24 0
29 -12 24 -12 -4 -14 1 -9 29 3 19 1 36 -4 38 -13 4 -1 38 13 38 6 0 8 -7 5
-15 -7 -18 9 -30 17 -13 3 9 8 8 16 -4 13 -22 40 -24 40 -3 0 8 5 15 10 15 6
0 10 4 10 10 0 11 -32 1 -42 -14 -5 -8 -8 -7 -8 1 0 6 9 18 20 26 19 13 20 16
5 31 -9 9 -20 16 -25 16 -5 0 -6 7 -3 17 4 11 3 14 -6 9 -8 -5 -11 -3 -9 7 2
9 0 16 -4 16 -23 2 -29 0 -23 -8 3 -5 -3 -16 -13 -23 -11 -7 -22 -23 -26 -35
-8 -24 -14 -27 -39 -17 -9 3 -13 13 -10 25 7 24 -14 26 -21 2 -4 -15 -5 -15
-4 2 1 47 -3 65 -13 65 -7 0 -9 -10 -5 -25 7 -27 0 -31 -24 -15 -8 5 -10 10
-4 10 19 0 25 40 6 41 -11 0 -12 2 -4 6 15 6 16 43 1 43 -5 0 -3 10 5 22 20
28 21 44 1 28 -8 -7 -15 -8 -15 -2 0 5 7 15 15 22 10 9 15 9 15 1 0 -6 5 -11
10 -11 6 0 10 7 10 15 0 14 -12 19 -32 16 -16 -2 -7 21 16 44 16 16 31 23 42
18 13 -5 16 -3 11 10 -3 9 -2 17 4 17 6 0 9 -8 7 -17z m-395 -152 l37 -1 0
-55 0 -55 36 0 c21 0 33 -4 29 -10 -3 -5 -24 -10 -45 -10 -21 0 -42 5 -45 10
-3 6 -16 10 -28 9 -12 0 -16 -3 -9 -6 8 -3 12 -26 12 -64 0 -50 3 -59 18 -59
11 0 17 -8 18 -26 l2 -25 -104 3 c-57 2 -105 -1 -107 -5 -4 -13 -37 4 -37 19
0 17 17 18 23 2 3 -7 4 -3 4 8 -1 14 -6 20 -14 17 -7 -3 -13 2 -13 10 0 8 6
18 13 20 6 3 -14 6 -46 6 -36 1 -56 5 -52 11 3 6 28 10 55 10 l49 0 -1 48 c-1
74 1 102 10 102 4 0 7 -33 7 -72 0 -72 0 -73 28 -76 26 -3 27 -1 27 37 0 39 2
41 30 41 39 0 41 29 3 52 -21 13 -23 18 -10 18 9 0 17 7 17 15 0 8 -7 15 -15
15 -8 0 -15 4 -15 8 0 5 19 7 43 6 23 -2 59 -3 80 -3z"/>
<path d="M6703 2473 c-8 -3 -13 -22 -13 -44 0 -22 -4 -38 -9 -34 -5 3 -8 21
-6 40 2 19 -1 35 -6 35 -5 0 -9 -89 -9 -202 -1 -112 -2 -242 -3 -291 -1 -48 1
-87 6 -87 6 0 14 403 9 463 -1 9 3 17 9 17 7 0 9 -37 6 -110 -4 -113 1 -134
14 -57 5 28 7 5 6 -70 -1 -62 1 -109 6 -104 4 4 6 106 5 228 -2 170 -6 219
-15 216z"/>
<path d="M1847 2203 c2 -38 5 -80 6 -95 2 -15 -1 -30 -7 -32 -6 -2 -1 -5 12
-5 19 -1 22 -7 24 -43 1 -24 2 -60 4 -80 1 -21 -2 -38 -8 -38 -5 0 -8 12 -6
28 3 24 0 27 -27 27 l-30 -1 -3 -224 c-1 -124 -4 -231 -7 -237 -2 -7 -11 -10
-20 -7 -8 4 -17 -1 -21 -10 -3 -9 -10 -14 -14 -11 -4 3 -22 2 -39 -1 l-31 -6
0 -124 c0 -76 -4 -124 -10 -124 -5 0 -10 -6 -10 -13 0 -9 -9 -12 -27 -9 l-28
4 3 -81 c4 -83 -3 -97 -26 -60 -9 14 -20 19 -34 16 -16 -5 -23 1 -31 24 l-12
30 -75 -3 -75 -3 -3 43 c-2 27 -8 42 -17 42 -10 0 -13 -19 -11 -85 l1 -85 -25
3 c-23 3 -25 8 -30 73 l-5 69 -85 3 -85 2 1 -105 2 -105 -139 0 c-96 0 -139 3
-139 11 0 8 -5 7 -15 -1 -13 -11 -14 -25 -8 -74 4 -34 7 -87 6 -118 0 -39 4
-59 13 -62 10 -4 14 -26 14 -81 0 -43 4 -75 10 -75 6 0 10 -33 10 -80 0 -73 2
-80 19 -80 11 0 22 -4 25 -9 3 -5 7 -93 8 -195 2 -150 -1 -189 -12 -196 -8 -5
97 -9 243 -9 l257 -1 0 26 c0 22 4 25 23 21 47 -12 102 -17 83 -9 -18 8 -17
10 12 20 17 6 34 7 37 2 3 -4 -1 -10 -7 -13 -9 -3 -10 -8 -2 -16 7 -8 31 -8
87 -1 42 5 117 10 167 11 83 1 106 8 80 24 -5 3 -10 23 -10 44 0 35 2 38 24
34 21 -4 25 -1 30 28 3 19 7 59 9 89 2 46 5 55 22 58 19 3 20 -2 17 -158 -3
-141 -2 -160 13 -160 14 0 15 19 14 155 0 85 -5 157 -10 161 -5 3 -9 63 -9
134 0 107 3 129 16 134 9 3 14 10 12 15 -7 19 -113 131 -124 131 -7 0 -12 18
-12 50 0 46 2 50 24 50 24 0 24 0 26 128 1 70 1 152 1 182 -1 30 1 45 4 34 2
-12 13 -24 24 -27 18 -5 19 1 19 106 0 62 3 136 6 165 6 45 10 52 29 52 21 0
22 2 24 182 1 99 4 185 7 190 12 19 22 -5 17 -42 -6 -41 0 -47 27 -30 10 6 11
10 3 10 -7 0 -13 11 -13 25 0 14 5 25 11 25 5 0 8 -4 5 -8 -3 -5 1 -9 9 -9 10
0 13 9 10 32 -2 17 1 38 6 46 9 14 11 3 12 -58 0 -12 4 -20 8 -17 5 3 9 12 9
20 0 9 6 14 13 11 6 -2 11 -15 9 -28 -2 -19 0 -21 8 -9 5 8 10 43 10 78 0 62
0 62 -28 62 -20 0 -32 -7 -39 -22 -8 -17 -9 -5 -5 50 4 68 3 72 -17 72 -20 0
-21 5 -21 100 l0 100 -94 0 c-52 0 -101 2 -108 5 -11 4 -13 -8 -11 -62z"/>
<path d="M2191 1144 c-20 -20 -24 -36 -29 -114 -3 -56 -9 -90 -16 -90 -8 0
-10 -45 -8 -151 3 -133 1 -152 -14 -163 -15 -11 -16 -32 -15 -171 0 -87 -3
-163 -8 -169 -5 -6 -8 -69 -7 -141 1 -113 3 -130 18 -133 15 -3 16 10 13 132
-3 104 -1 137 10 146 10 9 12 42 10 151 -2 77 -7 149 -10 159 -5 14 1 20 25
25 l31 7 -3 139 c-1 77 -6 142 -10 145 -11 7 -10 74 1 74 5 0 12 -12 14 -27 2
-16 5 -2 6 29 0 31 5 60 11 63 5 3 9 31 8 61 -1 29 -3 54 -3 53 0 -1 -11 -12
-24 -25z"/>
<path d="M173 1008 c2 -19 -3 -23 -24 -23 -22 0 -25 -3 -21 -25 3 -14 8 -30
13 -35 4 -6 9 -50 11 -99 3 -86 3 -88 30 -93 24 -5 27 -10 33 -67 4 -33 12
-64 17 -67 5 -3 11 -50 13 -103 4 -93 3 -98 -15 -93 -11 3 -24 -1 -31 -9 -6
-8 -17 -14 -23 -14 -6 0 -17 -9 -24 -20 -7 -11 -19 -20 -27 -20 -11 0 -14 -7
-9 -25 10 -40 -3 -29 -31 28 -25 48 -27 62 -26 167 1 63 3 129 6 145 3 17 8
87 12 158 l6 127 -26 0 c-26 0 -27 -3 -27 -49 0 -28 -4 -52 -8 -55 -4 -2 -9
-70 -10 -150 -1 -127 0 -146 15 -155 16 -8 16 -11 0 -34 -14 -22 -16 -58 -16
-252 0 -208 1 -226 17 -223 10 2 16 11 14 22 -3 15 1 17 30 11 42 -9 50 -14
43 -26 -4 -5 -1 -9 4 -9 6 0 11 9 11 20 0 19 -10 24 -64 32 -13 2 -19 13 -21
36 -2 26 0 32 13 27 12 -4 13 -3 2 10 -11 14 -16 132 -6 143 3 2 30 -2 60 -9
l56 -12 0 -99 c0 -59 -4 -98 -10 -98 -5 0 -10 -14 -10 -31 0 -28 3 -31 23 -24
12 3 28 7 35 7 20 2 13 18 -8 18 -11 0 -20 7 -20 15 0 30 45 13 51 -20 4 -19
13 -20 259 -22 193 -1 249 1 230 9 l-25 11 25 6 c14 3 26 13 27 21 2 12 -7 14
-45 12 l-48 -4 4 41 c3 33 1 41 -12 41 -19 0 -22 -20 -3 -20 7 0 5 -5 -5 -10
-10 -6 -14 -18 -11 -31 5 -18 2 -20 -23 -17 -23 2 -30 9 -35 33 -6 25 -7 26
-8 6 -1 -20 -3 -22 -16 -11 -10 8 -13 21 -9 34 5 19 5 19 -7 4 -20 -24 -59 -7
-59 27 0 25 0 25 94 25 l94 0 4 51 c1 28 0 53 -4 56 -5 2 -7 28 -6 56 l1 52 6
-50 c5 -36 8 -43 11 -25 7 36 -1 91 -11 84 -5 -3 -9 2 -9 10 0 8 -8 20 -18 26
-13 9 -14 10 -1 7 14 -5 16 4 11 64 -3 42 -1 69 5 69 6 0 13 28 17 62 3 34 9
64 14 67 17 14 28 48 22 76 -4 24 -10 29 -28 28 -19 -2 -22 2 -23 35 -2 102
-13 126 -43 96 -13 -12 -20 -14 -29 -5 -14 14 -117 15 -117 1 0 -5 6 -10 13
-10 12 0 14 -30 8 -107 -1 -8 -15 -13 -37 -13 -34 0 -36 2 -30 25 5 21 3 25
-17 25 -13 0 -28 5 -35 12 -7 7 -12 8 -13 3 0 -6 -2 -22 -2 -37 -1 -15 -5 -28
-9 -28 -57 -1 -55 -2 -61 52 -4 29 -11 54 -17 56 -5 2 -10 26 -10 53 l0 49
-40 0 c-35 0 -39 -3 -37 -22z"/>
<path d="M2058 663 c-13 -14 -17 -61 -22 -233 -6 -183 -9 -362 -7 -407 1 -7 8
-13 17 -13 13 0 15 18 12 138 -2 102 0 143 10 154 9 12 12 61 10 197 -2 99 -3
181 -4 181 0 0 -8 -8 -16 -17z"/>
<path d="M9470 270 c0 -11 -7 -20 -15 -20 -8 0 -15 -4 -15 -10 0 -5 -6 -10
-14 -10 -12 0 -13 -7 -5 -32 5 -18 9 -34 9 -34 0 -10 -55 -12 -66 -3 -11 9
-14 7 -14 -9 0 -24 15 -37 25 -22 10 15 42 12 49 -5 3 -9 0 -25 -7 -37 -9 -16
-9 -22 1 -25 17 -7 15 -33 -3 -33 -8 0 -15 -4 -15 -10 0 -17 38 -11 49 7 9 17
11 17 25 -2 13 -17 17 -18 25 -5 6 8 6 17 2 20 -4 3 -11 14 -15 25 -7 19 -8
19 -17 2 -15 -26 -29 -11 -29 34 0 27 4 39 14 39 8 0 17 -6 19 -12 4 -10 8 -9
16 2 9 13 11 13 11 -2 0 -10 5 -18 10 -18 13 0 13 3 -1 34 -9 20 -9 29 1 41 7
8 8 15 2 15 -12 0 -25 37 -22 68 1 12 -3 22 -9 22 -6 0 -11 -9 -11 -20z"/>
</g>
</svg>
