<?xml version="1.0" standalone="no"?>
<!DOCTYPE svg PUBLIC "-//W3C//DTD SVG 20010904//EN"
 "http://www.w3.org/TR/2001/REC-SVG-20010904/DTD/svg10.dtd">
<svg version="1.0" xmlns="http://www.w3.org/2000/svg"
 width="901.000000pt" height="722.000000pt" viewBox="0 0 901.000000 722.000000"
 preserveAspectRatio="xMidYMid meet">
<metadata>
Created by potrace 1.11, written by Peter Selinger 2001-2013
</metadata>
<rect x="0" y="0" fill="#fff" stroke="#000000" stroke-miterlimit="10" width="901" height="722"/>
<g transform="translate(0.000000,722.000000) scale(0.100000,-0.100000)"
fill="#000000" stroke="none">
<path d="M1867 6994 c-2 -118 -10 -219 -20 -269 -9 -44 -16 -103 -16 -131 1
-28 -4 -61 -10 -72 -6 -11 -11 -32 -11 -46 0 -14 -4 -27 -9 -31 -5 -3 -13 -31
-17 -62 -4 -31 -15 -71 -26 -89 -19 -32 -38 -151 -20 -126 12 17 57 0 83 -31
24 -28 26 -102 3 -111 -9 -3 -17 -6 -19 -6 -1 0 1 17 6 38 11 47 11 52 0 52
-4 0 -14 -21 -22 -47 -7 -27 -19 -53 -27 -58 -11 -9 -9 -13 11 -24 27 -14 52
-58 63 -108 15 -74 15 -93 0 -93 -16 0 -20 14 -18 60 2 25 1 25 -8 3 -10 -25
-20 -29 -37 -12 -6 6 -17 9 -24 7 -8 -3 -1 -16 18 -38 17 -19 35 -45 42 -57
14 -28 14 -73 -1 -73 -6 0 -8 -3 -4 -7 4 -5 13 -8 19 -8 7 0 13 -12 15 -27 3
-21 -1 -28 -14 -28 -12 0 -15 6 -11 21 3 12 3 19 0 16 -3 -3 -21 3 -40 14 -44
25 -50 20 -20 -13 43 -46 66 -93 76 -153 5 -33 7 -62 5 -64 -9 -10 -34 11 -34
29 0 11 -5 20 -11 20 -6 0 -25 12 -42 26 -26 22 -32 23 -39 10 -5 -9 -16 -16
-24 -16 -12 0 -10 -7 8 -32 23 -33 23 -36 22 -300 l-1 -268 24 0 c12 0 23 -4
23 -10 0 -5 -5 -10 -10 -10 -6 0 -4 -10 4 -22 11 -17 14 -45 12 -101 l-4 -77
65 6 65 7 -7 -24 c-4 -13 -8 -25 -9 -26 -1 -1 -21 -4 -46 -6 -25 -3 -47 -6
-50 -7 -3 -1 -8 -2 -12 -1 -5 0 -8 -8 -8 -19 0 -21 10 -24 65 -20 42 3 49 10
28 26 -17 12 -16 13 8 14 24 0 25 -2 25 -62 -1 -35 -4 -68 -8 -74 -4 -6 -5
-14 -2 -17 10 -9 11 -208 1 -214 -4 -2 -3 -11 3 -18 8 -10 8 -15 0 -20 -8 -5
-8 -10 0 -20 8 -9 8 -15 0 -20 -6 -3 -7 -12 -3 -18 10 -17 11 -87 0 -94 -4 -2
-2 -11 4 -20 8 -9 9 -17 3 -21 -11 -8 -11 -42 -1 -59 4 -6 3 -14 -3 -18 -6 -4
-7 -12 -3 -18 9 -15 10 -45 1 -78 -3 -16 -1 -32 5 -38 9 -9 8 -14 -2 -20 -9
-6 -10 -11 -2 -15 6 -4 8 -12 5 -18 -4 -6 -7 -141 -8 -299 l0 -289 -33 0 c-29
0 -33 -3 -33 -25 0 -19 5 -25 21 -25 17 0 19 3 10 13 -13 16 -5 27 19 27 15 0
17 -11 16 -83 -1 -45 -5 -88 -9 -94 -4 -6 -1 -13 5 -16 10 -3 10 -7 -1 -20 -7
-10 -9 -17 -4 -17 5 0 8 -70 7 -170 -2 -150 0 -174 17 -207 15 -30 19 -59 19
-151 0 -102 -2 -113 -15 -102 -12 10 -19 10 -27 2 -8 -8 -17 -8 -30 -1 -15 8
-17 13 -7 25 9 11 8 14 -4 14 -9 0 -19 -5 -22 -10 -4 -6 -8 -181 -10 -389 l-3
-379 21 -6 c21 -5 21 -6 4 -19 -10 -7 -18 -17 -17 -22 7 -33 -2 -125 -11 -125
-6 0 -9 7 -5 15 3 8 1 15 -4 15 -6 0 -10 9 -10 21 0 11 5 17 10 14 6 -3 10 3
10 14 0 11 -4 23 -10 26 -5 3 -10 19 -10 36 0 25 -4 29 -27 29 -16 0 -34 4
-42 9 -9 6 -21 5 -32 -2 -24 -15 -50 6 -31 25 9 9 12 9 12 0 0 -7 5 -12 11
-12 5 0 7 5 4 10 -3 6 0 10 9 10 8 0 16 -6 19 -12 3 -10 8 -9 22 2 14 11 19
12 22 3 7 -21 23 -15 23 8 0 20 -4 21 -42 16 -45 -6 -69 5 -81 35 -3 10 -2 20
3 23 4 3 10 -1 13 -7 2 -7 7 -10 11 -7 8 7 9 249 1 257 -3 3 -5 -28 -5 -69 0
-89 -9 -149 -22 -149 -5 0 -8 11 -6 25 2 13 -1 23 -7 22 -5 -1 -9 -7 -7 -14 4
-17 -18 -27 -30 -15 -8 8 -17 8 -31 1 -28 -15 -49 7 -24 25 21 16 22 30 1 50
-8 9 -11 16 -4 16 6 0 10 17 9 43 -1 23 1 49 5 58 4 10 1 23 -9 32 -10 11 -12
18 -4 23 7 4 9 21 5 45 -4 24 -1 47 6 59 10 15 10 22 0 32 -20 20 -14 38 13
38 16 0 25 6 25 16 0 13 -3 14 -14 5 -11 -9 -15 -8 -20 4 -3 9 -10 14 -16 10
-5 -3 -18 3 -29 14 -11 11 -17 23 -12 25 5 3 6 18 3 33 l-6 28 -7 -30 c-7 -29
-7 -29 -14 -7 -6 17 -10 20 -16 11 -6 -10 -12 -10 -27 4 -10 9 -23 17 -29 17
-6 0 -14 7 -17 16 -3 9 -15 14 -28 12 -16 -2 -24 3 -28 22 -4 14 -3 33 2 42 4
9 7 37 4 62 -3 37 0 47 14 51 27 9 44 2 54 -20 8 -18 9 -18 13 -2 5 18 23 24
23 7 0 -5 5 -10 10 -10 20 0 9 28 -12 34 -21 5 -75 82 -65 92 2 2 22 5 45 6
34 1 42 5 42 20 0 20 -26 25 -33 6 -4 -10 -6 -10 -6 0 -1 6 -5 12 -11 12 -5 0
-9 -6 -7 -12 1 -7 -9 -14 -22 -16 -13 -2 -26 -12 -28 -23 -6 -21 -11 -23 -32
-10 -13 8 -13 12 -1 26 13 16 11 17 -28 14 l-42 -4 -3 427 c-2 416 -3 427 -23
445 -20 17 -20 22 -8 98 l12 80 -3 -82 c-2 -46 1 -85 6 -88 9 -6 14 57 9 128
-1 21 5 53 14 70 8 18 14 39 13 48 -2 14 -46 64 -48 54 -1 -3 -2 -9 -3 -14 0
-5 -5 -13 -10 -18 -5 -5 -6 6 -2 26 3 18 6 39 7 45 0 6 4 2 9 -9 6 -14 9 9 11
70 2 82 3 106 8 143 1 16 38 16 44 0 3 -7 6 4 6 25 1 20 -4 37 -10 37 -17 0 1
21 27 30 31 12 35 55 4 47 -13 -3 -20 0 -20 9 0 8 7 14 15 14 8 0 15 5 15 11
0 6 -9 9 -20 6 -13 -3 -20 0 -20 10 0 20 49 9 66 -15 10 -14 12 -12 10 13 -2
17 -5 37 -9 45 -10 26 -4 50 12 50 12 0 13 2 3 8 -14 10 -25 52 -13 52 4 0 7
80 5 178 -3 210 -2 195 -14 187 -5 -3 -10 1 -10 10 0 9 5 13 10 10 6 -3 10 0
10 8 0 10 -16 17 -45 21 l-45 7 0 89 c0 52 -4 92 -11 95 -6 4 -8 22 -4 46 6
33 4 39 -12 40 -56 3 -58 4 -61 32 -2 15 -9 27 -16 27 -8 0 -20 15 -27 33 -7
17 -21 41 -31 51 -10 11 -18 31 -18 45 0 13 -4 38 -9 55 -23 75 -41 186 -41
249 0 37 -3 67 -8 67 -4 0 -6 18 -4 40 4 40 4 40 -27 34 -25 -5 -31 -3 -31 10
0 10 4 15 8 12 4 -2 14 -1 22 4 11 7 12 15 4 37 -13 38 -40 42 -48 6 -4 -15
-9 -36 -13 -47 -4 -13 -2 -16 7 -11 9 5 11 4 6 -4 -4 -6 -2 -18 4 -26 7 -8 9
-15 5 -15 -4 0 -14 8 -22 18 -12 15 -13 14 -7 -10 4 -18 2 -28 -5 -28 -6 0
-11 -8 -11 -17 0 -15 2 -15 14 2 13 18 14 18 23 -1 10 -20 10 -60 -2 -294 -9
-196 -6 -184 -43 -188 -18 -2 -32 -9 -33 -15 0 -7 -2 -21 -5 -32 -2 -11 -6
-500 -8 -1087 l-4 -1067 20 -3 c12 -2 23 -9 26 -16 3 -11 0 -12 -16 -3 -10 6
-22 7 -26 4 -11 -11 -7 -115 4 -108 6 4 8 10 5 15 -7 12 31 19 125 21 72 2 85
0 88 -14 4 -19 -9 -22 -25 -6 -7 7 -25 8 -53 2 -49 -9 -54 -29 -7 -25 40 4 77
-5 77 -18 0 -5 -18 -19 -41 -30 -23 -12 -38 -24 -35 -28 10 -10 86 -11 86 -1
0 5 -4 9 -10 9 -5 0 -10 4 -10 10 0 5 7 7 16 3 8 -3 14 -15 12 -26 -3 -19 -10
-21 -115 -22 l-112 -1 6 28 c3 17 1 28 -6 28 -7 0 -11 -35 -11 -110 0 -60 -2
-110 -5 -110 -17 0 -63 45 -58 56 4 10 -3 14 -21 14 -22 0 -26 -4 -26 -30 0
-21 -4 -28 -14 -24 -7 3 -16 -2 -19 -10 -4 -9 -13 -16 -21 -16 -16 0 -19 33
-16 164 1 44 -1 48 -20 43 -11 -3 -20 -1 -20 3 0 5 -12 3 -27 -5 -15 -8 -32
-11 -37 -6 -6 4 -19 11 -29 14 -16 6 -17 -1 -15 -96 2 -87 0 -102 -14 -105
-14 -3 -16 -16 -13 -83 1 -44 -1 -82 -6 -84 -7 -5 -1 -166 7 -174 9 -10 18 12
20 52 3 92 1 86 34 77 29 -8 36 -3 31 24 -1 4 3 14 9 21 6 8 12 35 13 61 l2
47 53 1 52 1 3 -97 c2 -78 0 -95 -10 -86 -7 6 -13 15 -13 20 0 5 -9 21 -19 34
-18 22 -21 23 -35 8 -23 -22 -20 -34 8 -34 21 0 25 -5 28 -37 2 -21 0 -59 -3
-86 -6 -52 -2 -62 18 -46 8 7 13 8 13 1 0 -5 -6 -12 -14 -15 -7 -3 -16 -18
-19 -34 -6 -32 24 -69 49 -59 7 3 14 1 14 -4 0 -6 -11 -10 -25 -10 -14 0 -25
5 -25 10 0 6 -7 10 -15 10 -12 0 -15 -13 -15 -59 0 -50 3 -59 20 -64 11 -3 20
-10 20 -16 0 -14 -27 -14 -35 -1 -3 6 -12 10 -19 10 -10 0 -14 -18 -15 -62 -1
-34 -6 -65 -12 -69 -6 -3 -12 -21 -13 -38 -1 -34 -26 -44 -26 -11 0 11 -5 20
-11 20 -6 0 -9 -10 -7 -22 3 -25 26 -33 65 -23 22 5 25 10 19 36 -7 36 2 81
15 74 4 -3 8 -25 7 -49 0 -24 3 -49 6 -55 4 -7 -1 -11 -13 -11 -19 0 -21 -6
-21 -55 0 -42 -3 -55 -15 -55 -8 0 -15 5 -15 10 0 14 -27 12 -33 -2 -4 -10 -8
-10 -15 1 -8 11 -13 10 -31 -5 -18 -16 -21 -29 -21 -106 0 -86 -1 -88 -24 -88
-13 0 -38 -3 -55 -6 -29 -6 -31 -5 -31 25 0 17 -4 31 -10 31 -5 0 -10 -11 -10
-24 0 -22 -31 -42 -44 -28 -11 10 -6 212 4 212 6 0 10 -3 10 -7 0 -5 27 -9 60
-10 34 -1 60 2 60 7 0 6 -16 10 -35 10 -32 0 -35 2 -35 30 0 17 5 30 10 30 6
0 10 7 10 15 0 8 -5 15 -11 15 -5 0 -7 -5 -3 -12 4 -7 3 -8 -5 -4 -6 4 -9 12
-6 17 4 5 1 9 -4 9 -6 0 -2 9 9 20 11 11 20 31 20 44 0 15 7 26 18 29 16 4 16
5 0 6 -14 1 -18 10 -18 45 0 36 -4 45 -21 49 -15 4 -23 0 -26 -14 -4 -14 -11
-17 -28 -13 -22 5 -23 4 -20 -53 3 -70 5 -75 15 -43 l8 25 1 -24 c1 -19 5 -23
26 -19 14 3 28 1 31 -3 5 -9 -15 -13 -47 -11 -12 1 -15 -4 -12 -18 3 -11 8
-20 12 -20 4 0 7 -9 8 -21 1 -15 -2 -18 -10 -11 -7 5 -24 8 -39 7 -30 -4 -48
12 -25 21 20 7 20 61 -1 68 -9 3 -27 10 -39 16 -14 6 -23 6 -23 0 0 -5 11 -12
24 -16 13 -3 26 -14 29 -25 6 -24 -9 -25 -22 -2 -9 16 -10 14 -11 -9 0 -14 5
-28 12 -30 21 -7 -3 -28 -33 -28 -25 0 -29 4 -29 29 0 24 -14 41 -35 41 -1 0
-6 -16 -10 -36 -6 -33 -8 -35 -33 -29 -37 9 -44 18 -34 46 4 13 6 95 4 181 -4
147 -5 158 -23 158 -15 0 -19 -7 -19 -34 0 -19 -4 -38 -10 -41 -12 -8 -13
-372 0 -380 9 -6 22 26 18 45 -2 7 3 15 10 17 8 3 12 -7 12 -31 0 -29 4 -36
20 -36 19 0 20 -7 20 -110 0 -74 4 -110 11 -110 6 0 9 -6 6 -13 -2 -6 -1 -45
2 -85 4 -40 4 -75 1 -77 -3 -2 -5 -76 -5 -166 l1 -163 24 -7 25 -7 -25 -1
c-24 -1 -25 -4 -25 -51 0 -41 3 -50 18 -50 9 0 17 -4 17 -10 0 -5 -9 -10 -19
-10 -17 0 -19 -7 -18 -50 2 -46 4 -50 26 -50 13 0 21 -3 17 -7 -4 -4 -14 -8
-23 -8 -13 0 -16 -18 -18 -107 -2 -107 -2 -108 22 -108 12 0 23 -5 23 -11 0
-7 -10 -9 -25 -5 -24 6 -25 5 -24 -49 2 -51 3 -55 26 -55 13 0 22 -4 18 -10
-3 -5 -12 -7 -20 -3 -10 3 -15 -1 -16 -13 0 -11 -2 -63 -5 -116 l-4 -97 32 -4
33 -4 -34 -1 c-28 -2 -32 -5 -28 -21 3 -15 -1 -21 -17 -24 -11 -2 4 -5 35 -6
56 -1 57 -1 64 32 5 22 9 26 12 15 2 -10 9 -18 14 -18 5 0 9 43 9 95 0 52 3
95 6 95 3 0 12 -6 20 -14 10 -11 14 -40 14 -105 0 -54 4 -91 10 -91 6 0 10 23
10 50 0 49 1 50 29 50 17 0 33 5 36 10 4 6 -10 10 -34 10 -32 0 -41 4 -41 18
0 14 2 15 10 2 8 -12 10 -11 10 7 0 12 -6 24 -12 27 -7 3 -2 5 12 5 65 -3 60
-18 60 201 0 193 1 200 20 200 19 0 20 -8 22 -207 l3 -207 43 -3 43 -3 -1 38
c-1 83 -1 82 24 82 32 0 56 -10 56 -22 0 -5 -13 -7 -30 -3 -27 6 -30 4 -29
-17 0 -13 3 -17 6 -10 6 15 33 16 33 1 0 -28 33 -78 53 -81 16 -2 22 -10 21
-25 0 -13 2 -23 6 -23 3 0 15 -7 26 -15 19 -14 19 -14 -1 -10 -73 14 -93 13
-90 -3 2 -9 4 -32 4 -49 1 -48 21 -40 21 8 0 34 3 40 17 35 10 -2 32 -7 49
-11 31 -6 32 -5 32 29 0 29 -5 37 -26 45 -21 8 -11 9 38 4 73 -6 75 -7 76 -36
0 -12 1 -41 2 -63 l2 -42 192 -1 c143 -1 194 2 200 12 6 9 8 9 8 0 0 -10 27
-13 100 -13 93 0 100 1 100 20 0 11 4 20 9 20 5 0 8 -8 7 -18 -1 -15 10 -17
78 -20 66 -2 80 0 92 15 13 17 13 17 14 1 0 -17 39 -18 676 -18 488 0 673 3
668 11 -3 6 -7 42 -7 80 l-1 69 -43 0 c-47 0 -49 -5 -44 -87 2 -27 -1 -33 -17
-33 -18 0 -20 7 -20 61 0 57 -10 88 -19 62 -5 -15 -53 -18 -53 -4 0 5 8 12 18
14 10 3 6 5 -11 6 -17 1 -27 -4 -26 -11 4 -31 -2 -48 -16 -48 -8 0 -15 6 -15
13 0 14 -62 16 -91 3 -8 -4 -29 0 -45 9 -19 10 -23 15 -11 15 10 0 17 8 17 20
0 14 -7 20 -24 20 -13 0 -31 3 -39 6 -12 4 -16 -3 -19 -28 -4 -39 -24 -35 -22
5 2 20 -3 27 -16 27 -10 0 -25 7 -34 15 -21 21 -43 19 -49 -6 -3 -12 -10 -18
-17 -14 -7 4 -11 36 -10 83 2 129 4 122 -34 122 -21 0 -36 6 -40 16 -3 8 -11
12 -16 9 -6 -4 -22 -4 -36 -1 -20 5 -24 13 -24 41 0 18 5 37 12 41 7 4 40 8
75 7 57 0 63 2 63 21 1 12 3 89 5 171 2 83 4 201 5 263 l0 114 53 -4 52 -3 0
45 0 45 43 3 42 3 0 135 0 134 45 0 c51 0 46 -11 49 125 l1 60 43 -1 c47 -1
44 -8 47 113 1 35 5 66 9 70 4 4 23 6 42 4 27 -2 34 1 35 16 1 10 3 47 5 82 4
85 8 93 46 91 53 -3 55 -2 50 31 -4 27 -8 30 -36 27 -33 -3 -44 -23 -12 -23
11 0 21 -6 23 -12 3 -9 -7 -13 -31 -13 -25 0 -36 4 -36 15 0 8 -5 15 -11 15
-5 0 -8 4 -4 9 6 11 -33 26 -43 17 -3 -4 4 -15 16 -26 12 -12 22 -23 22 -25 0
-3 -19 -5 -41 -5 -34 0 -39 2 -30 14 9 11 8 17 -4 29 -28 28 -14 44 33 38 20
-3 14 16 -8 22 -12 3 -19 13 -18 24 0 10 0 33 0 51 -3 53 -22 27 -23 -31 -1
-29 -3 -44 -6 -35 -6 24 -20 23 -33 -2 -8 -14 -8 -26 0 -40 9 -17 8 -20 -14
-20 -30 0 -41 14 -22 29 16 13 13 108 -3 124 -21 21 -13 47 15 47 16 0 23 -4
18 -11 -4 -8 1 -9 16 -4 41 13 154 15 162 3 4 -8 11 -9 20 -2 19 15 141 16
150 1 10 -16 21 -2 21 28 0 29 -13 47 -20 28 -3 -7 -14 -13 -25 -13 -17 0 -19
4 -14 26 6 21 4 25 -8 21 -10 -4 -16 -1 -16 7 0 9 11 13 30 12 17 0 30 -6 30
-13 0 -24 18 -13 23 15 4 23 4 37 -2 84 -1 3 -10 4 -22 1 -20 -6 -20 -3 -17
86 3 79 1 91 -13 91 -9 0 -19 10 -22 21 -5 19 -11 21 -40 16 -19 -3 -47 -17
-62 -31 -26 -25 -27 -26 -6 -26 17 0 21 -6 21 -36 0 -42 -18 -42 -39 1 -13 27
-13 28 -87 21 -57 -5 -74 -4 -74 6 0 7 -20 23 -44 35 -37 18 -46 20 -56 9 -6
-8 -22 -17 -35 -20 -30 -8 -32 -22 -6 -29 14 -3 18 -11 14 -26 -3 -12 -9 -21
-14 -21 -5 0 -9 -9 -9 -19 0 -16 6 -19 32 -18 30 2 32 0 32 -33 l1 -34 75 1
c131 2 122 0 118 30 -3 28 -4 28 -93 34 l-90 5 118 2 c98 2 117 0 118 -13 4
-71 2 -80 -17 -80 -10 0 -20 -8 -22 -17 -2 -11 3 -18 12 -18 9 0 16 5 16 10 0
6 4 10 8 10 4 0 8 -14 8 -32 -1 -17 4 -33 11 -35 9 -3 13 20 16 84 l3 88 2
-90 2 -91 35 4 c36 4 55 -14 39 -39 -5 -9 -10 -5 -16 12 -9 23 -10 23 -24 5
-12 -17 -16 -18 -40 -6 -17 9 -28 11 -32 4 -14 -21 -41 -23 -47 -4 -8 24 -53
21 -71 -5 -13 -17 -14 -17 -22 6 -9 23 -9 23 -20 3 -12 -22 -59 -26 -55 -5 2
6 -4 11 -12 11 -8 0 -15 -6 -15 -12 0 -9 -4 -8 -10 2 -9 13 -11 13 -19 1 -8
-13 -12 -13 -27 0 -13 11 -18 11 -21 2 -6 -18 -60 -16 -67 2 -12 32 22 63 39
35 11 -19 25 -10 25 15 0 14 -7 28 -15 31 -13 5 -13 8 -2 18 21 17 29 46 13
46 -8 0 -16 -9 -19 -20 -3 -11 -12 -20 -21 -20 -24 0 -13 82 16 122 17 25 18
32 7 39 -8 5 -21 9 -29 9 -8 0 -25 3 -37 6 -17 5 -23 2 -23 -11 0 -9 -6 -15
-12 -12 -10 3 -13 94 -11 418 8 1606 8 1654 -10 1651 -9 -2 -26 2 -37 8 -18 9
-20 21 -20 100 0 89 0 90 30 105 17 9 30 17 30 20 0 2 -31 1 -70 -2 -56 -5
-70 -3 -71 8 0 8 0 133 0 279 1 210 -1 277 -14 323 -8 32 -15 75 -15 96 0 21
-7 60 -15 87 -8 27 -17 69 -20 94 -11 99 -30 160 -56 175 -5 4 -9 25 -9 47 0
56 -19 114 -46 144 -15 16 -26 43 -30 77 -4 28 -15 70 -26 92 -10 22 -23 71
-28 109 -6 37 -13 72 -16 77 -12 20 -33 266 -39 469 -4 118 -9 217 -11 219 -1
2 -5 -82 -7 -185z m-992 -4345 c-5 -16 -1 -19 30 -19 24 0 34 -4 29 -11 -13
-21 -10 -89 4 -89 7 0 10 4 7 10 -10 16 14 50 35 50 10 0 21 -4 25 -9 9 -16
-15 -24 -30 -11 -13 10 -15 8 -15 -13 0 -22 6 -26 43 -32 23 -4 47 -10 52 -13
6 -4 15 -7 22 -8 6 -1 19 -7 30 -13 17 -10 17 -10 1 -11 -18 0 -25 -39 -19
-117 1 -24 -2 -33 -13 -33 -21 0 -35 30 -29 63 3 17 1 27 -7 27 -7 0 -10 6 -7
13 19 46 20 50 10 44 -6 -4 -13 -1 -16 5 -2 7 -8 9 -13 5 -5 -4 -2 -13 6 -18
11 -8 12 -12 3 -16 -7 -2 -13 -11 -13 -19 0 -8 -7 -14 -16 -14 -13 0 -14 3 -4
15 10 12 8 16 -15 25 -14 5 -31 10 -36 10 -5 0 -9 4 -9 9 0 15 -32 22 -47 9
-11 -9 -16 -9 -23 1 -12 21 0 51 21 51 12 0 19 7 19 19 0 11 3 26 6 35 5 12 0
16 -19 16 -19 0 -26 6 -30 27 -6 31 0 46 14 37 5 -3 7 -14 4 -25z m316 -224
c7 5 14 -42 12 -92 -1 -7 7 -13 16 -13 14 0 14 -2 1 -10 -13 -8 -12 -10 3 -10
15 0 17 -11 17 -85 0 -81 1 -85 23 -86 l22 -1 -23 -7 c-24 -6 -24 -7 -25 -184
-1 -110 2 -178 8 -181 6 -2 5 -9 -2 -17 -16 -16 -17 -43 -2 -33 8 4 8 0 0 -15
-7 -11 -16 -21 -21 -21 -15 0 -12 -28 3 -33 6 -2 9 -7 5 -11 -3 -4 -15 -3 -26
3 -12 6 -46 11 -76 11 -55 0 -56 0 -56 29 0 17 -4 32 -9 35 -13 8 -23 -23 -15
-47 5 -16 3 -19 -11 -14 -9 4 -29 7 -43 8 -15 0 -21 3 -14 6 6 2 12 15 12 28
0 12 7 36 15 51 10 20 15 23 15 12 0 -10 4 -18 9 -18 4 0 11 28 15 62 3 34 11
65 16 68 6 3 11 54 11 113 1 98 3 107 20 107 11 0 19 7 19 15 0 8 -7 15 -15
15 -8 0 -15 5 -15 10 0 6 7 10 15 10 11 0 15 19 17 88 l3 87 33 0 c31 0 32 1
34 42 0 24 1 49 2 56 1 7 -10 12 -26 12 -28 -1 -33 16 -8 26 8 4 19 0 23 -8 5
-7 12 -11 18 -8z m-287 -790 c4 -11 23 -15 78 -15 51 0 68 -3 58 -10 -11 -7
-11 -10 -2 -10 10 0 10 -5 1 -21 -6 -12 -7 -24 -3 -28 5 -3 9 -34 10 -68 l0
-63 -73 0 c-69 0 -73 1 -72 23 1 16 2 18 6 5 8 -31 23 -19 23 17 0 21 -5 34
-11 33 -6 -2 -13 2 -16 9 -2 6 4 13 14 15 13 2 18 12 18 36 0 20 -4 31 -12 28
-6 -3 -14 2 -17 10 -3 8 -12 14 -20 14 -9 0 -12 7 -9 20 6 24 19 26 27 5z
m571 -114 c-2 -5 -5 -33 -6 -64 -2 -48 -5 -57 -26 -66 -13 -6 -35 -11 -48 -11
-21 0 -25 5 -25 30 0 20 -5 30 -15 30 -10 0 -15 11 -16 30 -1 17 -2 36 -3 43
-4 21 0 22 73 19 39 -2 69 -7 66 -11z m773 -797 c36 -6 35 -5 23 -36 -5 -13
-15 -43 -22 -68 -16 -57 -21 -62 -58 -65 -28 -2 -31 0 -31 25 0 16 -7 30 -15
34 -11 4 -15 21 -15 65 l0 59 43 -4 c23 -3 57 -7 75 -10z"/>
<path d="M1595 5358 c-10 -48 -15 -648 -5 -648 6 0 10 18 10 40 0 22 4 40 8
40 4 0 6 -33 5 -74 -2 -44 0 -77 7 -81 6 -4 10 5 10 22 0 22 2 25 10 13 8 -12
10 -10 10 8 0 13 -4 20 -10 17 -5 -3 -10 3 -10 14 0 12 6 21 13 21 8 0 7 4 -3
10 -13 9 -13 11 0 20 10 6 11 10 3 10 -19 0 -16 21 5 36 16 13 16 13 -3 14
-15 0 -16 3 -7 12 15 15 16 54 2 63 -6 4 -8 11 -4 16 3 5 6 102 7 214 0 113 4
205 9 205 4 0 8 5 8 10 0 6 -7 10 -16 10 -14 0 -14 3 -4 15 11 13 8 15 -14 15
-18 0 -27 -6 -31 -22z"/>
<path d="M1395 4830 l-30 -20 33 -6 c17 -4 32 -10 32 -15 0 -5 7 -9 15 -9 8 0
15 7 15 15 0 12 4 14 18 6 15 -8 17 -26 17 -133 0 -68 3 -124 8 -125 24 -9 57
-1 57 13 0 8 -5 12 -10 9 -7 -4 -10 19 -9 64 1 39 5 74 9 76 13 8 -1 44 -19
48 -13 4 -11 6 7 12 12 4 22 14 22 22 0 10 -6 12 -20 8 -15 -5 -22 0 -30 19
-5 14 -17 26 -27 26 -10 0 -27 2 -38 5 -11 2 -33 -5 -50 -15z"/>
<path d="M1699 4823 c-10 -2 -20 -14 -23 -26 -9 -33 -7 -782 2 -773 4 4 8 92
9 194 2 229 1 227 10 218 4 -3 6 -45 4 -91 -1 -58 2 -85 9 -85 7 0 10 14 8 38
-2 29 0 36 12 34 12 -3 13 -1 3 9 -8 8 -13 41 -13 88 0 53 3 71 10 61 8 -13
10 -12 10 3 0 9 -4 17 -10 17 -5 0 -10 9 -10 20 0 11 -4 20 -10 20 -5 0 -10
-12 -10 -27 0 -31 -12 -23 -16 11 -2 19 3 25 29 30 24 5 28 9 19 18 -7 7 -12
20 -12 30 0 10 -5 18 -11 18 -6 0 -9 -9 -6 -20 3 -11 2 -22 -3 -25 -9 -6 -20
44 -13 62 3 7 10 10 15 7 6 -4 14 0 19 7 6 10 9 7 10 -11 0 -14 3 -19 6 -13 2
7 -1 29 -7 49 -7 20 -8 39 -4 43 5 3 10 16 12 28 2 18 -1 21 -17 18 -27 -5
-27 9 0 21 17 8 19 12 8 20 -8 6 -21 9 -30 7z"/>
<path d="M4480 4558 c-47 -19 -94 -39 -105 -46 -18 -11 -16 -12 15 -6 39 8 41
8 88 6 26 -2 33 -6 30 -19 -3 -13 -12 -17 -33 -15 -23 2 -26 0 -15 -8 12 -7 7
-10 -20 -11 -134 -7 -216 -20 -212 -34 3 -11 76 -7 235 11 l47 6 0 -73 c0 -41
3 -85 6 -99 l6 -25 -21 25 c-16 20 -22 23 -32 13 -11 -11 -9 -13 7 -13 14 0
16 -3 6 -9 -8 -4 -24 -7 -38 -5 -24 2 -34 -19 -14 -31 10 -6 4 -1221 -7 -1237
-2 -5 -11 -8 -20 -8 -15 0 -15 42 -9 456 3 251 9 461 12 465 3 5 -2 9 -10 9
-14 0 -16 -20 -17 -142 0 -79 -3 -289 -5 -467 -4 -301 -3 -324 13 -336 10 -7
21 -11 25 -9 9 6 11 -38 2 -60 -8 -22 -26 -20 -23 2 3 33 -1 52 -11 52 -5 0
-10 -18 -10 -41 0 -24 -4 -38 -10 -34 -5 3 -10 22 -10 41 0 32 -2 34 -20 24
-20 -10 -20 -8 -16 157 3 92 5 319 6 504 l1 336 26 -3 c13 -1 27 -5 30 -7 7
-8 43 25 43 39 0 15 -35 21 -80 14 -32 -5 -35 -8 -36 -40 -2 -55 -7 -1053 -5
-1068 0 -6 7 -11 13 -10 7 2 14 -7 16 -19 2 -16 -2 -23 -12 -23 -9 0 -16 6
-16 13 0 8 -3 9 -8 1 -4 -6 -47 -11 -107 -11 -74 -1 -88 1 -53 6 26 4 50 9 52
12 3 3 8 161 12 352 4 297 3 347 -9 347 -17 0 -27 60 -27 164 0 39 -5 100 -10
135 -6 35 -8 66 -6 69 3 3 19 5 35 4 23 0 29 3 28 19 -1 11 -5 15 -10 10 -5
-5 -16 -2 -26 8 -13 12 -14 19 -5 29 17 16 25 15 18 -3 -4 -9 0 -15 9 -15 11
0 15 12 14 50 0 28 -4 50 -9 50 -4 0 -8 -3 -8 -7 0 -5 -16 -26 -36 -47 -26
-28 -34 -46 -31 -63 2 -13 0 -26 -5 -29 -5 -3 -6 -15 -2 -26 5 -17 2 -19 -22
-16 -22 2 -39 19 -50 46 -3 7 -34 -11 -34 -20 0 -5 5 -6 10 -3 6 3 10 0 10 -8
0 -21 -57 -9 -63 14 -7 27 -28 24 -26 -3 1 -13 1 -42 1 -64 -2 -37 -6 -43 -29
-49 l-28 -8 25 -6 c24 -7 25 -9 22 -91 -8 -299 -12 -880 -5 -880 5 0 14 5 20
11 7 7 28 9 57 5 44 -7 46 -8 46 -42 0 -27 4 -34 20 -34 17 0 20 -7 20 -40 0
-39 1 -40 35 -40 l35 0 0 -251 c0 -195 -3 -250 -12 -247 -10 4 -12 50 -10 191
2 103 -1 187 -6 187 -20 0 -29 -24 -24 -67 3 -32 1 -48 -9 -54 -10 -6 -10 -9
-1 -9 8 0 12 -20 12 -65 0 -45 -4 -65 -12 -65 -8 0 -9 -3 -3 -8 16 -11 19 -72
3 -72 -9 0 -9 -3 2 -10 13 -9 13 -11 0 -19 -19 -13 -29 -5 -23 19 4 13 0 20
-10 20 -22 0 -31 -32 -13 -46 14 -10 16 -47 16 -269 0 -230 -2 -257 -16 -251
-9 3 -17 6 -18 6 -1 0 0 16 2 35 4 33 -11 49 -21 23 -3 -10 -8 -10 -16 -2 -9
8 -12 71 -11 218 0 171 -2 206 -14 206 -12 0 -14 -36 -15 -204 -1 -150 1 -205
10 -208 8 -3 6 -11 -7 -26 -10 -12 -21 -22 -24 -22 -9 0 0 484 10 490 5 3 11
110 14 238 4 222 3 232 -15 232 -25 0 -25 16 0 23 13 3 19 13 18 29 -2 18 -7
24 -19 20 -12 -3 -18 1 -18 12 0 9 6 16 14 16 18 0 30 30 17 43 -11 11 -34 0
-26 -13 3 -5 1 -11 -3 -14 -5 -3 -7 -81 -5 -174 3 -149 1 -170 -13 -176 -10
-4 -14 -2 -11 6 6 18 -12 50 -24 43 -5 -4 -9 -18 -9 -33 -1 -25 -2 -26 -14 -9
-8 11 -12 36 -10 65 1 25 -1 51 -6 57 -10 12 -6 1002 4 1012 3 4 1 12 -4 18
-7 8 -5 23 6 45 12 24 15 50 12 106 -3 41 -7 76 -9 79 -8 7 -49 -7 -49 -16 0
-5 7 -9 15 -9 12 0 15 -16 15 -85 0 -81 -1 -85 -22 -86 -19 -1 -19 -2 -5 -6
16 -4 17 -11 11 -46 -4 -23 -7 -120 -6 -215 0 -94 -4 -175 -9 -178 -10 -6 -11
11 -9 99 1 46 -2 57 -14 57 -13 0 -16 12 -16 55 l0 55 -40 0 -40 0 0 50 0 50
-65 0 -65 0 0 -50 0 -50 -40 0 c-37 0 -40 -2 -41 -27 -2 -68 -5 -78 -16 -75
-9 1 -13 -16 -13 -60 0 -97 -5 -108 -51 -108 l-39 0 -2 48 -1 47 -7 -45 -6
-45 -5 35 c-3 19 -7 -95 -8 -255 -5 -537 -10 -718 -21 -729 -8 -8 -12 -4 -16
12 -4 12 -10 22 -15 22 -13 0 -19 -36 -22 -134 -1 -55 -6 -91 -13 -93 -6 -2
-14 5 -17 17 -3 11 -9 20 -14 20 -5 0 -7 -45 -5 -100 3 -55 2 -106 -1 -115
-10 -25 -39 -6 -35 23 2 14 -2 27 -8 29 -7 2 -10 -38 -10 -122 1 -124 -9 -159
-28 -96 -11 40 -26 40 -26 1 0 -16 3 -30 8 -30 9 0 6 -179 -3 -188 -3 -4 -14
-7 -23 -7 -15 0 -17 -13 -18 -90 -1 -49 -2 -129 -3 -177 -1 -71 -4 -88 -16
-88 -8 0 -15 9 -15 20 0 14 -7 20 -23 20 -28 0 -64 34 -48 45 17 10 13 55 -4
55 -10 0 -15 -10 -15 -30 0 -23 -4 -30 -20 -30 -16 0 -20 7 -20 30 0 17 -4 30
-10 30 -5 0 -10 -13 -10 -30 0 -20 -5 -30 -15 -30 -10 0 -15 -11 -16 -35 -1
-19 -2 -41 -3 -47 -1 -7 8 -13 19 -14 11 0 39 -1 62 -2 l42 -2 -4 -182 c-6
-356 -8 -618 -4 -623 3 -2 42 -7 86 -11 l82 -7 -5 -38 c-5 -33 -3 -38 17 -41
17 -2 23 -10 24 -31 0 -16 -3 -31 -7 -33 -4 -3 -8 6 -8 20 0 16 -6 26 -15 26
-18 0 -21 -56 -4 -62 9 -3 9 -10 0 -26 -6 -12 -15 -22 -19 -22 -4 0 -7 43 -7
95 0 55 -4 95 -10 95 -5 0 -10 -6 -11 -13 -3 -31 -5 -37 -13 -37 -4 0 -8 11
-7 25 0 14 -3 25 -9 25 -10 0 -11 -4 -14 -36 -2 -25 -21 -5 -21 22 0 13 -3 24
-8 24 -4 0 -7 -50 -7 -110 -1 -72 3 -109 10 -107 5 2 9 13 7 25 -5 34 18 37
24 3 l6 -31 102 3 c79 1 100 5 98 16 -1 7 1 18 6 25 12 14 23 86 14 86 -4 0
-7 18 -7 40 0 48 12 54 17 8 2 -25 9 -33 31 -39 l27 -7 0 64 c0 42 -4 64 -12
64 -6 0 -1 9 12 20 12 11 27 17 32 14 6 -4 13 -2 17 4 3 5 15 12 26 14 14 2
19 -2 17 -14 -2 -14 4 -18 27 -18 16 0 31 4 33 8 2 5 14 12 28 15 33 8 47 -22
40 -89 -5 -45 -3 -50 12 -46 15 4 17 15 16 66 -1 33 0 103 2 153 l5 93 26 0
27 0 -1 -237 c-2 -206 0 -238 13 -238 13 0 15 31 18 210 2 172 5 211 17 218 8
4 15 15 15 22 0 9 10 15 23 15 22 0 22 -2 20 -96 l-2 -96 61 -139 c35 -78 67
-139 75 -139 7 0 13 2 13 5 0 3 -22 55 -49 115 -27 61 -53 124 -56 142 -6 27
-5 30 11 24 11 -4 31 -10 47 -13 26 -5 27 -7 27 -74 0 -66 1 -69 24 -69 50 0
54 -7 49 -71 l-6 -59 627 1 c568 1 627 3 636 18 9 15 9 15 10 0 0 -14 26 -16
235 -17 145 -1 235 2 235 8 0 9 -24 14 -33 8 -2 -2 -11 3 -20 11 -10 8 -27 11
-42 7 -25 -6 -25 -6 -25 65 l0 71 58 -7 c31 -4 59 -11 60 -16 2 -5 10 -9 18
-9 8 0 11 6 8 15 -4 10 0 15 15 15 13 0 21 -6 21 -16 0 -12 6 -15 21 -11 20 5
20 2 17 -69 l-3 -75 55 3 55 3 3 40 c2 24 -2 43 -10 50 -7 5 -19 17 -25 26
-11 14 -8 15 25 13 20 -1 37 -3 37 -4 0 -1 22 -4 49 -5 28 -1 52 -7 54 -13 5
-17 22 -15 22 3 0 8 5 15 10 15 6 0 10 -7 10 -15 0 -10 10 -15 34 -15 26 0 33
4 32 18 0 10 6 17 17 16 9 0 33 -1 52 -2 22 -1 35 -7 34 -15 -1 -6 -1 -36 0
-65 l1 -53 245 2 c215 1 245 3 245 16 0 14 2 14 19 -1 16 -15 53 -16 360 -15
187 1 341 6 341 11 0 4 11 8 25 8 14 0 25 -4 25 -10 0 -7 143 -10 410 -10 321
0 410 3 410 13 0 9 2 9 8 0 5 -8 60 -11 186 -10 l178 2 4 106 4 107 -31 4
c-22 4 -38 -1 -51 -14 -15 -15 -21 -16 -38 -6 -12 8 -15 15 -8 19 7 4 3 11
-10 18 -18 10 -21 9 -16 -4 4 -8 1 -15 -6 -15 -6 0 -8 -5 -5 -10 11 -17 14
-100 4 -100 -5 0 -9 14 -9 30 0 39 -29 87 -41 68 -7 -10 -9 -10 -9 0 0 6 -6
12 -14 12 -8 0 -18 5 -22 12 -5 8 -2 9 11 4 11 -4 22 -2 26 6 7 10 11 10 21 0
6 -6 16 -12 22 -12 5 0 0 9 -12 20 -12 11 -28 17 -37 14 -11 -5 -14 -2 -9 10
3 9 12 16 20 16 8 0 14 5 14 11 0 5 -4 7 -10 4 -5 -3 -10 1 -10 9 0 11 -9 16
-26 16 l-26 0 23 -20 c19 -15 20 -19 8 -20 -9 0 -22 6 -29 14 -6 8 -28 16 -48
18 -25 2 -37 8 -37 18 0 18 53 26 68 11 18 -18 28 -12 17 9 -6 11 -17 20 -25
20 -8 0 -15 7 -15 15 0 8 -7 15 -15 15 -8 0 -15 4 -15 10 0 5 16 7 35 5 19 -3
35 -1 35 4 0 12 -26 21 -62 21 -19 0 -28 4 -25 13 2 6 10 11 16 10 6 -2 11 1
11 6 0 4 11 6 25 3 20 -3 25 0 27 17 0 11 1 26 2 33 1 7 -14 13 -37 13 -46 2
-54 9 -33 31 12 11 20 13 29 6 18 -15 40 1 43 32 2 24 0 26 -36 26 -66 0 -64
42 2 44 28 1 32 5 32 26 1 22 -5 26 -38 30 -68 9 -58 31 19 42 14 2 20 11 20
28 0 25 -2 26 -62 29 -25 1 -33 31 -8 31 8 0 15 3 16 8 0 4 2 18 5 30 3 18 -1
25 -16 29 -44 11 -4 45 43 36 16 -3 27 -1 27 6 0 6 -6 12 -12 12 -7 1 -20 3
-28 4 -8 1 -21 3 -28 4 -9 0 -11 8 -7 21 4 11 2 20 -4 20 -19 0 -12 22 10 27
11 3 18 11 15 19 -3 7 -1 16 4 19 6 4 10 -5 10 -19 0 -14 3 -26 8 -26 18 1 30
17 28 40 -1 18 -7 25 -20 23 -25 -2 -66 14 -66 26 0 5 9 12 19 16 11 3 22 16
24 28 4 18 5 17 6 -5 1 -29 28 -40 36 -16 14 43 10 53 -21 54 -18 1 -40 4 -49
8 -27 10 1 36 39 36 28 0 77 19 49 20 -6 0 -9 9 -6 20 5 17 14 20 68 20 l64 0
-5 -293 c-3 -253 -13 -686 -15 -705 -5 -31 3 -62 15 -62 7 0 19 -7 26 -15 7
-9 18 -14 24 -12 6 2 24 0 40 -4 21 -6 32 -5 38 4 14 22 8 27 -33 27 -32 0
-40 3 -35 15 4 11 -1 15 -18 15 -12 0 -25 3 -29 6 -11 11 5 34 23 34 24 0 29
10 19 35 -5 13 -8 15 -8 5 -1 -13 -2 -13 -11 0 -14 21 -12 30 5 30 8 0 15 5
15 11 0 5 -3 8 -8 5 -4 -2 -15 2 -25 9 -15 10 -15 14 -3 24 8 6 20 10 27 9 9
-2 15 8 17 28 3 28 0 32 -29 38 -27 5 -30 8 -19 21 7 9 19 14 26 11 7 -3 15 2
18 10 8 20 -11 54 -29 54 -17 0 -21 29 -5 31 6 1 15 3 20 4 6 1 15 3 21 4 8 1
8 5 -1 16 -7 8 -16 12 -21 9 -5 -3 -9 0 -9 5 0 6 5 11 10 11 6 0 10 5 10 11 0
5 -4 8 -9 5 -5 -3 -14 1 -21 9 -13 15 -14 14 35 30 22 6 18 25 -4 25 -27 0
-35 17 -14 29 16 9 16 10 -4 11 -13 0 -23 4 -23 8 0 14 22 31 35 26 7 -3 15 5
19 18 9 35 8 38 -17 38 -28 0 -37 7 -31 25 3 7 14 11 25 8 13 -4 19 0 19 11 0
9 -4 16 -9 16 -14 0 -39 56 -31 70 4 6 16 10 26 8 15 -2 20 4 22 30 3 28 0 32
-21 32 -13 0 -27 3 -30 7 -11 10 13 33 34 33 11 0 19 7 19 15 0 8 -8 15 -17
15 -23 0 -45 44 -30 59 6 6 22 11 35 11 20 0 22 3 12 14 -6 8 -18 12 -26 9 -8
-3 -14 1 -14 11 0 11 9 16 28 16 21 0 24 2 12 10 -12 8 -11 10 6 10 12 0 34
-3 50 -6 l29 -5 -3 -212 c-1 -117 -3 -249 -5 -295 -1 -45 -2 -82 -2 -83 0 0
37 -3 82 -5 l82 -5 3 43 c3 40 5 43 36 46 32 3 32 4 32 58 l0 54 35 0 35 0 0
530 -1 530 -37 1 -37 2 35 6 35 6 0 345 0 345 -38 3 c-29 3 -37 7 -33 18 4 11
2 12 -14 4 -27 -14 -43 -12 -36 5 3 8 1 15 -5 15 -5 0 -9 8 -7 18 2 13 -5 18
-34 20 -31 3 -38 7 -38 24 0 19 -4 20 -57 13 -32 -4 -62 -10 -68 -15 -5 -4
-17 -8 -25 -8 -8 -1 -30 -2 -48 -3 -19 -1 -37 4 -42 11 -5 8 -9 9 -14 1 -4 -6
-4 -16 0 -23 5 -8 2 -9 -10 -5 -10 4 -20 7 -22 7 -2 0 -4 8 -4 18 -1 25 -15
-4 -23 -45 -6 -32 6 -46 16 -20 3 6 6 3 6 -9 1 -21 -2 -22 -71 -16 -9 1 -23 8
-30 15 -7 6 -26 13 -43 14 -16 2 -54 5 -82 7 -44 4 -53 2 -53 -11 0 -11 4 -13
13 -6 17 13 39 11 45 -4 4 -15 2 -15 -98 -18 -41 -1 -88 -6 -103 -10 -39 -10
-44 0 -13 27 l27 23 -21 23 c-11 12 -28 22 -38 23 -9 0 -25 2 -35 4 -17 3 -17
2 -1 -22 15 -24 15 -25 0 -20 -9 4 -16 2 -16 -3 0 -17 -43 -4 -51 16 -6 14 -8
11 -8 -15 -1 -24 3 -32 12 -28 8 3 20 1 28 -3 8 -5 19 -4 26 2 9 7 13 7 13 0
0 -16 -22 -27 -55 -27 -23 0 -30 -4 -30 -20 0 -26 -14 -47 -26 -40 -5 4 -9 -6
-9 -20 0 -47 -25 -21 -30 31 -4 34 -7 43 -12 29 -4 -11 -5 -36 -3 -57 l3 -36
-156 -4 c-87 -1 -158 0 -160 5 -5 11 -32 9 -32 -3 0 -5 -9 -10 -20 -10 -18 0
-25 16 -21 43 0 4 -7 7 -17 7 -10 0 -23 5 -30 12 -9 9 -12 7 -12 -11 0 -17 4
-21 19 -16 13 4 20 0 24 -16 4 -15 2 -19 -9 -15 -9 3 -14 -1 -14 -12 0 -14 -2
-14 -9 -3 -6 10 -22 12 -55 9 -25 -3 -46 -1 -46 4 0 5 -9 4 -19 -2 -11 -5 -45
-11 -75 -11 -62 -2 -70 -11 -28 -31 l27 -13 2 -120 c1 -112 0 -121 -20 -138
l-22 -18 23 6 c22 6 31 -8 13 -20 -5 -3 -8 -18 -6 -33 2 -16 -1 -35 -6 -43 -7
-12 -9 -11 -9 3 0 9 -9 20 -20 23 -29 9 -46 43 -25 51 22 9 18 27 -5 21 -11
-3 -18 -1 -14 4 3 5 0 9 -5 9 -6 0 -11 5 -11 10 0 6 7 10 16 10 8 0 12 -4 9
-10 -3 -5 -2 -10 4 -10 5 0 13 4 16 10 7 11 -39 25 -54 16 -5 -3 -12 12 -16
34 l-7 40 -49 0 c-45 0 -49 2 -49 24 0 13 -7 27 -16 30 -8 3 -12 10 -9 16 3 6
-1 13 -9 16 -11 4 -16 19 -16 45 l0 39 -45 0 c-25 0 -45 -4 -45 -10 0 -5 -11
-10 -25 -10 -14 0 -25 5 -25 10 0 6 -15 8 -39 4 -33 -5 -41 -3 -50 14 -6 11
-23 22 -37 25 -28 5 -122 -18 -138 -34 -6 -5 -19 -9 -29 -9 -16 0 -18 6 -15
30 3 17 1 33 -4 36 -4 3 -8 -2 -8 -11 0 -9 -4 -14 -10 -10 -5 3 -7 12 -3 20 3
8 1 15 -5 15 -14 0 -29 -22 -29 -42 0 -13 6 -16 24 -12 14 4 23 2 23 -5 0 -6
-9 -11 -19 -11 -11 0 -23 -4 -26 -10 -13 -21 -22 -8 -24 36 -2 53 -20 98 -21
52 0 -16 -4 -28 -10 -28 -5 0 -10 16 -10 35 0 19 4 35 9 35 5 0 11 10 14 22 5
17 9 19 20 9 23 -18 47 -3 47 31 0 21 6 31 20 35 16 4 19 13 18 59 -1 43 -4
51 -15 43 -7 -6 -10 -15 -7 -20 3 -5 1 -9 -5 -9 -5 0 -9 -11 -8 -24 1 -14 -2
-24 -8 -23 -5 1 -10 7 -10 12 -1 21 -18 19 -34 -5 -9 -14 -11 -21 -3 -16 12 7
16 -4 13 -32 -1 -7 5 -15 14 -18 22 -9 19 -23 -4 -17 -11 3 -21 15 -23 27 -2
13 -11 22 -25 24 -25 4 -26 7 -13 37 8 18 9 18 9 2 1 -16 3 -17 16 -3 16 16
20 31 6 22 -4 -3 -16 3 -26 14 -14 16 -16 23 -7 32 9 9 12 9 12 0 0 -7 5 -12
10 -12 12 0 1 53 -12 58 -4 2 -8 8 -8 13 0 15 29 -2 32 -19 4 -17 13 -10 63
53 9 11 14 15 11 8 -4 -6 -2 -14 4 -18 17 -10 11 -25 -10 -25 -20 0 -44 -32
-33 -44 13 -12 32 -6 27 9 -4 8 -1 15 5 15 6 0 11 -5 11 -11 0 -5 5 -7 10 -4
6 3 10 32 10 64 0 58 0 59 -32 65 -23 5 -34 2 -41 -9 -7 -14 -10 -14 -23 0 -9
8 -22 15 -30 15 -8 0 -14 5 -14 10 0 6 6 10 14 10 7 0 16 9 19 20 3 12 14 20
26 20 12 0 21 5 21 10 0 6 -9 10 -20 10 -11 0 -20 6 -20 14 0 8 -5 18 -12 22
-7 4 -8 3 -4 -5 9 -13 -3 -75 -12 -66 -4 3 -5 22 -3 41 2 26 -1 34 -14 34 -9
0 -13 -5 -9 -11 7 -12 6 -431 -2 -438 -3 -3 -13 -1 -22 5 -19 12 -206 13 -218
1 -4 -4 -16 -7 -26 -7 -13 0 -18 -8 -18 -28 0 -38 -8 -44 -35 -26 -20 13 -23
13 -29 -1 -5 -13 -9 -13 -26 -3 -15 10 -22 10 -32 0 -15 -15 -28 -16 -28 -1 0
5 4 8 9 4 13 -7 30 26 23 44 -3 10 3 12 26 6 16 -3 33 -2 36 3 9 15 -12 18
-86 14 -52 -3 -68 -7 -71 -20 -4 -16 -5 -16 -6 0 -1 12 -9 16 -28 15 -26 -2
-28 1 -27 36 l1 37 -48 0 -49 0 0 40 0 40 -90 0 -90 0 0 30 c0 32 -4 34 -82
30 -28 -1 -39 4 -47 19 -13 23 -37 19 -44 -7 -3 -10 -5 4 -6 31 0 26 -5 47
-11 47 -5 0 -10 7 -10 16 0 9 -8 14 -17 13 -10 -1 -37 -1 -60 0 l-43 1 4 198
c7 325 9 1039 3 1049 -8 13 -2 157 7 172 14 22 -15 41 -64 41 -30 0 -52 6 -60
15 -6 8 -60 30 -120 49 -95 32 -123 36 -246 41 l-139 6 -85 -33z m37 -934 c-3
-338 -6 -617 -9 -619 -2 -2 -16 -6 -32 -9 l-29 -5 7 342 c4 188 8 462 8 608 0
146 3 270 6 276 4 6 16 13 27 16 11 2 21 5 23 6 2 0 1 -276 -1 -615z m342
-624 c15 0 18 -10 18 -57 1 -32 -4 -75 -9 -95 l-11 -36 -33 21 c-25 17 -32 28
-31 51 1 16 -4 31 -10 33 -9 3 -13 -7 -13 -31 0 -19 -5 -38 -10 -41 -10 -6
-14 1 -24 48 -8 35 -26 26 -26 -14 0 -19 -5 -29 -15 -29 -10 0 -15 10 -15 29
0 44 -17 47 -22 3 -4 -36 9 -62 31 -62 6 0 11 -4 11 -10 0 -6 -10 -5 -25 2
-14 6 -25 15 -25 20 0 4 -7 8 -15 8 -10 0 -15 11 -15 35 0 19 -4 35 -10 35 -5
0 -10 -10 -10 -22 0 -13 -4 -30 -10 -38 -7 -11 -2 -17 23 -25 37 -12 44 -37
39 -148 -5 -87 -27 -88 -27 -1 0 48 -3 59 -17 62 -15 3 -18 -4 -18 -49 0 -36
-3 -50 -10 -43 -6 6 -11 43 -11 83 -1 62 -3 72 -17 69 -20 -4 -30 -48 -11 -48
10 0 10 -3 1 -12 -7 -7 -12 -22 -12 -35 0 -16 -4 -21 -15 -17 -8 4 -15 12 -15
20 0 8 -10 14 -23 14 -41 0 -60 23 -61 74 -1 25 1 46 4 46 3 0 20 -4 38 -9 21
-7 32 -6 32 1 0 6 7 5 16 -3 14 -11 10 -14 -28 -24 -36 -8 -43 -14 -43 -35 0
-21 5 -25 30 -25 22 0 31 5 33 20 3 11 10 23 17 27 9 6 11 32 7 101 -3 61 -1
97 6 101 6 3 75 9 154 12 79 4 145 8 148 11 2 2 6 -1 8 -6 2 -6 12 -11 21 -11z
m-97 -215 c-2 -16 2 -31 10 -36 10 -7 10 -9 1 -9 -8 0 -13 -15 -13 -39 0 -34
3 -38 20 -34 16 4 19 12 16 46 -2 23 0 52 5 64 6 18 4 26 -14 38 -22 15 -12
20 17 9 11 -4 16 -19 16 -45 0 -21 5 -39 10 -39 6 0 10 7 10 15 0 9 6 12 15 9
13 -5 12 -9 -4 -23 -25 -22 -37 -66 -21 -76 16 -10 30 13 30 48 0 15 5 27 10
27 6 0 10 -16 10 -35 0 -19 -5 -35 -11 -35 -6 0 -9 -6 -6 -14 3 -8 -2 -16 -12
-19 -11 -3 -20 -17 -23 -36 -4 -28 -2 -32 16 -29 12 2 23 13 27 28 4 14 6 -10
5 -52 -1 -45 3 -83 10 -92 12 -17 11 -99 -1 -128 -4 -10 -5 -24 -2 -32 3 -8 1
-17 -6 -20 -9 -5 -9 -7 1 -12 7 -3 12 -25 12 -55 0 -42 -3 -49 -20 -49 -15 0
-20 7 -20 26 0 22 -3 24 -14 15 -8 -7 -12 -21 -9 -32 4 -12 0 -25 -7 -29 -10
-6 -14 -36 -15 -99 -1 -70 -6 -95 -19 -110 -16 -17 -17 -54 -17 -407 0 -249
-3 -392 -10 -400 -7 -8 -6 -14 2 -19 8 -6 7 -10 -2 -16 -11 -8 -11 -12 4 -23
12 -9 14 -16 8 -21 -6 -3 -11 -1 -11 5 0 7 -7 10 -15 7 -8 -4 -17 -1 -21 5 -4
7 -9 6 -15 -3 -5 -8 -1 -18 12 -27 10 -7 19 -20 19 -28 0 -8 5 -14 10 -14 6 0
10 -5 10 -11 0 -6 -8 -9 -17 -7 -10 2 -17 10 -15 16 1 7 -2 12 -8 12 -15 0
-12 -36 5 -50 17 -14 20 -40 4 -40 -5 0 -9 -12 -8 -27 5 -65 1 -76 -26 -69
-27 7 -27 7 -29 -56 0 -23 -6 -43 -12 -45 -15 -5 -51 28 -55 51 -2 11 -17 24
-34 29 -16 6 -33 15 -37 21 -10 16 13 26 34 15 11 -6 18 -6 18 0 0 5 -7 12
-16 15 -10 4 -13 13 -9 25 7 23 -14 39 -26 20 -6 -10 -9 -6 -9 14 0 15 3 26 8
26 25 -4 33 2 26 24 -9 30 -11 32 -29 17 -12 -10 -15 -10 -15 4 0 10 -5 14
-11 10 -6 -3 -15 0 -20 7 -13 22 -11 -48 2 -74 9 -16 9 -22 0 -25 -6 -2 -11
-10 -11 -18 0 -8 6 -11 15 -8 11 5 15 -2 16 -27 0 -19 2 -46 3 -61 3 -42 -22
-34 -31 10 -4 20 -6 41 -5 46 3 10 -47 66 -59 66 -13 0 -19 -33 -8 -46 6 -7 9
-25 7 -40 -2 -22 -9 -28 -31 -31 -27 -4 -28 -3 -25 39 2 29 7 42 16 40 10 -2
10 2 3 17 -6 10 -8 20 -6 23 3 2 5 75 6 161 0 113 4 157 12 159 7 1 26 2 42 2
l30 1 5 125 c5 120 6 125 27 128 21 3 22 8 22 85 -1 45 2 109 6 141 l8 59 101
-6 c126 -7 166 7 77 27 -14 3 -31 0 -38 -5 -20 -18 -35 -1 -21 24 15 27 15 18
17 198 l1 147 26 6 c15 4 32 2 38 -4 6 -6 12 -53 12 -108 2 -145 2 -139 18
-122 10 10 16 47 19 118 4 96 3 102 -14 97 -18 -6 -18 3 -13 204 3 132 2 211
-4 211 -9 0 -6 159 3 187 3 8 -3 10 -17 4 -20 -7 -22 -16 -24 -87 -2 -43 -3
-81 -3 -84 -1 -2 -5 0 -11 6 -14 14 -15 193 -1 207 9 9 13 6 17 -11 4 -12 10
-22 15 -22 13 0 32 54 21 58 -5 1 -18 9 -28 18 -17 13 -15 13 16 1 30 -12 35
-18 32 -42z m260 18 c2 -31 7 -39 26 -41 22 -3 22 -5 21 -144 0 -77 2 -142 5
-146 3 -3 6 26 7 64 0 38 3 61 7 52 9 -21 27 -11 35 20 6 27 -19 43 -35 21 -8
-11 -9 -10 -4 4 3 10 6 24 6 31 0 15 37 18 46 4 4 -6 6 -54 6 -107 -2 -399 -2
-403 -14 -398 -10 3 -13 40 -12 146 1 78 4 144 6 146 2 2 2 24 0 49 -3 31 -9
46 -18 46 -10 0 -14 -14 -14 -49 0 -29 -5 -53 -14 -60 -12 -10 -14 -29 -6 -51
1 -3 6 9 10 25 5 18 8 -25 9 -113 1 -143 1 -143 -21 -140 -15 2 -24 11 -26 26
-4 26 -22 20 -22 -9 0 -12 -7 -19 -19 -19 -18 0 -19 7 -16 143 2 78 6 150 10
159 4 9 1 26 -5 38 -8 15 -8 25 -1 34 6 7 7 24 2 42 -5 18 -3 36 3 47 8 13 8
20 -4 27 -8 5 -19 9 -23 7 -5 -1 -9 -114 -9 -250 -1 -224 -2 -247 -17 -247
-16 0 -17 17 -16 164 1 90 5 169 9 175 4 6 3 11 -2 11 -6 0 -8 31 -6 75 4 58
2 75 -8 73 -7 -2 -16 -7 -20 -13 -5 -6 -8 -3 -8 7 0 9 9 18 21 20 17 2 23 11
26 42 2 23 -1 42 -8 46 -15 10 30 72 48 66 7 -3 15 -1 18 4 13 20 24 9 27 -27z
m1371 -893 c4 0 5 6 1 13 -5 9 -4 9 5 1 7 -7 31 -9 57 -6 43 5 44 4 43 -24 0
-16 -3 -23 -6 -16 -7 18 -23 4 -23 -20 0 -14 5 -18 15 -14 8 3 15 1 15 -3 0
-5 -7 -11 -15 -15 -20 -7 -19 -33 1 -44 11 -6 13 -12 6 -16 -6 -4 -9 -13 -5
-21 3 -8 0 -15 -6 -15 -6 0 -11 -4 -11 -10 0 -5 7 -10 15 -10 13 0 15 -23 15
-145 l0 -145 44 0 c25 0 48 -4 51 -10 3 -5 -1 -10 -9 -10 -9 0 -16 -4 -16 -10
0 -15 19 -12 48 8 38 25 86 16 90 -18 3 -29 26 -48 102 -87 30 -15 58 -32 61
-37 4 -5 6 -46 5 -92 -1 -96 -6 -92 100 -73 103 18 96 10 93 102 -1 45 -1 108
0 140 l1 57 36 0 36 0 -6 -187 c-3 -104 -5 -214 -6 -247 0 -52 -2 -57 -16 -45
-12 10 -20 10 -34 1 -18 -11 -19 -7 -17 66 l2 77 -109 8 c-61 4 -112 9 -114
12 -3 2 -4 16 -4 30 0 25 -3 27 -44 23 -24 -2 -44 0 -44 3 0 3 -13 6 -30 7
-24 0 -30 -3 -30 -20 0 -19 -2 -20 -17 -6 -10 8 -39 25 -65 37 -42 20 -46 25
-38 42 9 15 22 19 70 19 53 0 60 -2 60 -20 0 -13 7 -20 20 -20 11 0 20 7 20
15 0 12 13 15 60 15 33 0 60 4 60 8 0 7 -178 17 -266 14 -31 0 -31 0 -26 44
l5 44 -71 0 c-39 0 -78 3 -88 7 -12 4 -15 3 -10 -5 4 -7 3 -12 -3 -12 -5 0
-13 5 -16 10 -4 6 -14 9 -23 8 -15 -3 -17 15 -20 177 -2 99 0 190 3 202 5 22
24 27 36 9 9 -12 29 2 29 21 0 10 -6 14 -18 11 -15 -4 -18 -1 -14 20 4 21 6
22 14 8 5 -9 16 -16 23 -16 9 0 15 -10 15 -25 0 -14 5 -25 10 -25 6 0 10 9 10
20 0 11 6 20 13 20 7 1 4 6 -6 14 -14 11 -16 19 -8 33 5 11 6 25 1 32 -4 8 -4
27 0 42 5 17 5 31 -1 35 -16 10 -18 2 -20 -69 -1 -51 -5 -67 -16 -67 -11 0
-13 8 -8 30 4 20 3 30 -5 30 -9 0 -10 3 -1 14 13 16 9 58 -7 64 -5 1 -12 -5
-15 -15 -3 -15 -6 -14 -14 7 -12 29 -6 47 10 31 6 -6 15 -11 20 -11z m2053
-52 c5 -7 -58 -9 -185 -6 -105 2 -191 0 -191 -4 0 -4 73 -9 163 -9 166 -2 205
-3 211 -10 2 -2 1 -21 -1 -41 -4 -31 -9 -38 -32 -41 -14 -2 47 -4 135 -3 160
0 170 2 151 34 -6 8 0 12 18 12 14 0 28 -7 31 -15 4 -8 17 -15 29 -15 13 0 27
-4 30 -10 4 -6 -12 -10 -40 -10 -30 0 -44 -4 -40 -10 5 -8 -78 -9 -270 -4
-152 4 -290 8 -306 9 -16 1 -111 2 -210 3 -160 2 -180 4 -169 17 7 9 8 15 2
15 -5 0 -12 -6 -15 -14 -4 -10 -24 -13 -84 -10 -43 2 -158 3 -255 3 -112 1
-178 5 -178 11 0 6 23 10 50 10 35 0 49 4 48 12 -2 7 4 13 12 13 8 0 15 -7 15
-15 0 -11 14 -15 60 -16 33 -1 63 3 66 8 3 5 26 10 50 11 43 2 44 2 41 35 l-4
32 194 2 c175 2 183 3 83 8 -67 4 27 7 238 7 223 0 349 -3 353 -9z m-1079
-158 c0 -8 -8 -21 -19 -28 -15 -11 -18 -27 -18 -93 0 -55 -4 -79 -12 -79 -17
0 3 -17 27 -23 11 -3 -2 -5 -30 -6 -47 -1 -49 -2 -25 -14 14 -7 25 -18 25 -25
0 -7 6 -17 14 -21 16 -10 -112 -14 -141 -5 -11 3 -18 14 -17 27 1 17 2 18 6 5
2 -10 8 -18 13 -18 9 0 20 50 11 51 -3 0 -18 3 -33 5 -26 4 -27 3 -21 -31 l6
-35 -42 0 -43 0 3 113 c1 61 4 130 6 152 l5 40 142 0 c120 0 143 -2 143 -15z
m122 0 c45 0 52 -9 21 -28 -17 -10 -20 -23 -20 -90 0 -83 -7 -122 -21 -122 -5
0 -9 9 -9 20 0 11 -6 20 -14 20 -8 0 -13 -6 -12 -12 0 -7 -3 -14 -9 -15 -6 -1
-9 17 -8 42 2 35 -1 45 -13 45 -11 0 -15 -8 -13 -27 2 -16 -1 -28 -6 -28 -4 0
-9 16 -9 35 -1 31 2 35 22 32 12 -2 22 2 22 7 0 6 -9 11 -20 11 -11 0 -20 4
-20 10 0 5 7 7 15 4 21 -8 30 23 15 50 -7 13 -9 33 -5 45 5 17 10 19 25 11 10
-6 37 -10 59 -10z m198 -4 c4 -3 -3 -15 -15 -26 -19 -18 -22 -32 -23 -103 -1
-45 -1 -88 0 -94 1 -7 -5 -13 -14 -13 -9 0 -15 9 -15 26 0 16 -5 24 -12 22 -7
-3 -13 -13 -13 -24 0 -10 -8 -20 -17 -22 -13 -2 -16 1 -12 12 4 11 0 16 -13
16 -17 0 -19 6 -16 52 3 55 13 80 13 33 0 -22 3 -26 12 -17 16 16 18 54 3 69
-7 7 -15 10 -18 7 -3 -3 -8 -1 -12 5 -3 6 1 11 9 11 10 0 16 9 16 23 0 13 2
26 4 28 7 7 116 3 123 -5z m165 -5 c8 -8 9 -15 3 -17 -36 -14 -37 -19 -44
-197 -1 -18 -6 -27 -13 -24 -14 4 -15 8 -17 57 0 17 -5 30 -11 30 -5 0 -9 -8
-8 -17 5 -64 -6 -75 -67 -62 l-40 8 35 -1 c51 0 58 2 34 12 -23 9 -41 67 -25
83 5 5 7 16 4 23 -3 8 0 14 7 14 7 0 10 -16 8 -47 -2 -27 2 -48 8 -50 7 -2 11
22 12 67 0 38 -3 70 -9 70 -5 0 -9 -4 -9 -10 0 -5 -4 -10 -10 -10 -15 0 -12
27 4 33 7 3 12 16 11 29 -3 23 0 24 56 24 35 -1 63 -7 71 -15z m158 4 c9 -11
7 -20 -9 -42 -15 -21 -20 -48 -23 -110 -3 -76 -2 -83 17 -86 12 -3 6 -5 -12
-6 -26 -1 -33 3 -33 18 0 11 -4 23 -10 26 -10 6 -14 -7 -11 -32 1 -8 -9 -13
-26 -12 -15 0 -22 3 -15 6 19 8 14 23 -8 23 -11 0 -20 4 -20 10 0 5 8 9 18 7
24 -3 27 17 3 21 -26 4 -30 20 -15 62 l13 35 0 -33 c1 -45 22 -37 27 11 3 38
-12 59 -27 36 -7 -11 -9 -10 -9 4 0 9 5 17 10 17 6 0 10 11 10 24 0 28 5 30
64 33 28 1 49 -3 56 -12z m155 5 c-3 -5 1 -10 9 -10 22 0 20 -16 -4 -40 -16
-16 -20 -33 -20 -87 0 -38 -3 -78 -6 -90 -6 -22 -3 -23 45 -23 49 0 74 19 29
21 l-23 2 23 4 c30 6 23 29 -7 25 -19 -3 -22 1 -19 20 2 19 8 22 32 20 26 -3
28 -1 16 13 -9 11 -10 19 -3 26 18 18 3 50 -18 44 -11 -4 -19 -2 -19 4 0 6 7
11 15 11 10 0 15 10 15 31 l0 31 62 -6 c58 -6 97 -23 73 -32 -41 -16 -41 -17
-45 -216 0 -26 -28 -22 -32 4 -4 29 -26 34 -30 7 -3 -21 -7 -23 -68 -20 -71 3
-71 3 -73 23 -4 21 -22 21 -25 -2 -4 -21 -10 -24 -29 -12 -8 5 -9 13 -3 22 14
22 12 27 -15 34 -25 6 -34 29 -16 41 5 3 8 19 6 37 -4 28 -3 29 9 12 8 -10 12
-24 9 -31 -3 -7 2 -13 10 -13 11 0 14 11 14 41 -1 37 -3 40 -24 34 -25 -6 -32
9 -9 18 8 3 16 16 18 29 3 20 8 23 45 20 23 -2 44 2 48 8 3 5 8 10 11 10 3 0
2 -4 -1 -10z m405 -20 c0 -5 7 -10 16 -10 8 0 12 5 9 10 -9 14 19 12 33 -2 9
-9 15 -10 20 -2 4 6 21 9 38 7 l31 -5 0 -146 c1 -81 3 -154 5 -162 2 -12 -11
-15 -67 -17 -63 -3 -68 -2 -51 12 11 8 20 26 22 40 2 23 0 25 -39 25 -32 0
-38 -3 -29 -12 7 -7 12 -25 12 -41 0 -26 -3 -29 -22 -23 -13 3 -52 6 -88 6
l-65 1 45 22 c48 24 56 42 27 69 -12 11 -16 24 -12 37 4 12 2 21 -4 21 -11 0
-15 -26 -12 -62 1 -10 -4 -18 -12 -18 -18 0 -30 42 -16 51 16 9 7 44 -11 44
-10 0 -15 -10 -15 -27 -1 -15 -4 -30 -8 -34 -4 -4 -7 11 -7 34 0 37 3 42 24
42 19 0 22 4 18 25 -3 16 -11 25 -23 25 -12 0 -19 7 -19 20 0 11 7 20 15 20 9
0 15 9 15 23 0 13 2 26 5 29 10 10 165 8 165 -2z m-1295 -350 l9 -55 6 49 c3
27 11 51 18 54 10 3 12 -40 10 -209 -2 -159 -6 -213 -15 -217 -10 -3 -13 15
-13 69 0 91 -18 82 -22 -11 -3 -57 0 -66 17 -75 17 -9 20 -20 18 -69 -4 -85
-18 -95 -26 -17 -4 51 -22 65 -82 66 -28 1 -40 6 -40 16 0 9 8 13 23 12 17 -2
22 2 22 22 0 14 0 28 0 33 0 4 -6 7 -12 7 -7 0 -12 -8 -11 -19 2 -26 -15 -6
-19 23 -2 19 2 26 21 31 27 6 41 60 15 60 -8 0 -14 -9 -14 -20 0 -32 -17 -23
-22 11 -4 22 0 33 11 37 39 14 50 67 15 67 -10 0 -20 8 -22 18 -3 15 0 18 17
12 16 -5 21 -2 23 14 0 12 1 27 2 33 1 7 -8 13 -19 13 -29 0 -32 33 -3 37 16
2 23 10 25 28 0 14 1 29 2 33 1 5 13 7 28 5 25 -3 29 -8 38 -58z m201 36 c9
-23 9 -246 0 -246 -4 0 -6 7 -2 15 3 9 0 15 -9 15 -9 0 -16 -10 -16 -22 -7
-130 -7 -138 7 -138 8 0 14 10 14 24 0 14 5 28 11 32 8 5 6 10 -5 16 -38 21
-1 29 112 22 65 -3 119 -8 121 -10 7 -7 6 -234 -2 -234 -5 0 -17 5 -29 11 -25
14 -35 5 -16 -15 15 -14 95 -25 211 -27 l57 -2 -1 -36 c-1 -23 -3 -28 -6 -13
-6 32 -23 27 -23 -8 0 -21 -5 -30 -17 -31 -16 -1 -16 -2 -2 -6 24 -6 27 -173
4 -173 -8 0 -15 7 -15 15 0 9 -9 15 -23 15 -36 0 -54 28 -53 82 1 26 4 50 8
53 7 7 -12 85 -21 85 -4 0 -5 -18 -3 -40 4 -39 3 -40 -28 -40 -31 0 -65 22
-53 34 3 3 12 -2 20 -12 12 -16 14 -16 28 2 17 23 20 46 5 46 -5 0 -10 -4 -10
-10 0 -17 -22 -11 -45 13 -40 39 -54 47 -78 47 -18 0 -27 7 -31 25 -4 14 -13
25 -22 25 -8 0 -13 4 -9 9 3 6 -4 9 -15 8 -11 -1 -20 -8 -20 -15 0 -8 6 -12
14 -9 16 6 36 -11 36 -31 0 -11 -9 -13 -35 -9 -30 5 -35 3 -35 -14 0 -20 -17
-24 -57 -13 -36 10 -27 26 10 20 l32 -6 -33 16 c-29 12 -33 19 -28 39 4 14 2
25 -3 25 -5 0 -17 3 -26 6 -13 5 -16 2 -13 -16 1 -13 -2 -25 -8 -27 -5 -2 -10
12 -11 32 -1 31 2 35 18 30 13 -4 19 -2 19 9 0 9 4 15 9 14 10 -3 11 1 11 32
0 17 -7 20 -40 20 -28 0 -40 4 -40 14 0 10 14 16 43 18 38 3 42 5 42 31 1 25
-2 27 -36 27 -47 0 -56 13 -28 42 12 13 19 17 15 11 -5 -9 1 -13 17 -13 19 0
25 5 25 24 0 20 -7 25 -39 30 -40 6 -49 19 -25 33 7 4 15 20 18 35 4 20 0 28
-15 32 -17 4 -18 7 -7 21 7 9 20 15 29 14 38 -3 43 1 39 31 -4 27 -2 30 24 30
16 0 31 -6 34 -14z m165 -17 c1 -11 2 -26 2 -34 0 -106 -2 -114 -32 -130 -17
-8 -36 -12 -44 -9 -10 3 -18 -2 -22 -15 -3 -12 -11 -19 -16 -15 -6 3 -8 12 -5
20 3 8 -1 14 -9 14 -21 0 -19 30 3 31 9 1 22 2 27 4 6 1 18 3 28 3 9 1 17 9
17 17 0 18 -31 35 -65 35 -20 0 -26 4 -23 18 2 9 10 16 16 15 7 -2 12 1 12 5
0 5 14 6 31 4 24 -4 30 -1 27 9 -3 8 -18 14 -34 14 -20 1 -30 6 -32 19 -3 13
0 16 10 10 19 -13 66 -11 61 2 -3 7 5 10 21 7 16 -3 26 -12 27 -24z m164 -91
l0 -107 -35 21 c-51 31 -57 38 -32 38 12 0 22 3 22 8 0 4 3 17 6 30 5 17 2 22
-12 22 -16 0 -16 -2 -4 -10 20 -12 5 -24 -31 -26 -24 -1 -32 4 -40 23 -5 13
-9 28 -9 33 0 13 32 21 44 11 14 -11 41 24 31 39 -4 6 -1 10 5 10 6 0 8 5 5
11 -5 7 3 9 21 7 l29 -3 0 -107z m166 80 c3 -77 -3 -493 -7 -497 -3 -3 -8 -1
-12 5 -4 6 -22 16 -39 23 -38 16 -41 24 -12 45 12 8 18 19 14 25 -3 6 4 15 17
20 20 9 19 10 -14 10 -43 1 -51 20 -18 42 19 13 19 16 5 43 -19 35 -19 56 -1
56 8 0 14 10 14 25 0 22 -5 25 -38 25 -47 0 -73 24 -38 36 13 4 31 7 42 5 10
-1 26 6 36 17 18 19 18 20 -11 17 -16 -1 -32 -5 -36 -9 -12 -12 -23 -6 -23 14
0 11 -4 20 -10 20 -16 0 -11 27 6 34 12 4 14 13 10 32 -5 19 -3 25 6 22 8 -3
12 -16 10 -33 -3 -23 -1 -27 13 -21 9 3 23 6 31 6 15 0 14 34 -1 47 -4 5 -5 2
-1 -4 4 -7 2 -13 -3 -13 -12 0 -14 13 -4 23 3 4 19 7 35 7 22 0 28 -5 29 -22z
m163 6 c11 -29 7 -584 -4 -584 -6 0 -9 12 -8 28 2 21 -2 28 -19 30 -25 4 -30
17 -11 28 16 10 -16 22 -59 23 l-33 1 7 46 c4 32 2 48 -7 54 -24 15 1 32 36
25 48 -8 63 3 33 26 -20 16 -21 19 -6 19 10 0 15 5 12 10 -10 17 -32 11 -38
-10 -3 -13 -10 -18 -21 -14 -21 8 -20 24 2 25 12 0 10 3 -7 10 -24 9 -24 10
-5 28 10 10 21 14 22 10 2 -5 11 -9 20 -9 20 1 62 30 43 30 -6 0 -11 8 -9 18
2 13 -5 18 -32 20 -19 1 -41 5 -49 8 -22 7 18 33 52 34 28 0 32 6 21 34 -4 10
-18 16 -40 16 -27 0 -34 4 -34 20 0 11 6 21 13 21 6 1 19 3 27 4 8 1 23 3 32
4 11 1 16 8 13 21 -2 11 1 20 6 20 6 0 7 5 4 10 -3 6 3 10 13 10 11 0 23 -7
26 -16z m171 -4 c-3 -5 -2 -10 3 -10 12 0 5 -531 -7 -543 -6 -6 -6 -19 0 -35
10 -27 6 -188 -5 -199 -3 -4 -12 -1 -19 6 -9 9 -9 14 3 21 10 7 12 12 4 17 -6
5 -10 38 -9 83 1 41 -4 92 -12 114 -7 21 -10 42 -7 47 6 10 4 11 -45 15 -42 3
-62 21 -41 35 8 5 25 7 36 4 24 -5 52 19 34 30 -5 3 -19 3 -31 0 -15 -5 -22
-2 -26 14 -3 12 -9 21 -14 21 -5 0 -9 6 -9 14 0 15 37 29 45 16 7 -12 46 1 42
14 -2 6 -18 11 -35 12 -38 1 -52 12 -32 24 12 8 12 10 -3 16 -23 8 -21 21 4
35 17 8 23 8 30 -2 6 -10 13 -10 31 -2 13 7 18 12 12 12 -6 1 -9 12 -7 25 5
23 2 25 -38 28 -23 2 -44 8 -46 15 -5 14 33 28 65 24 12 -1 22 2 22 8 0 6 -8
11 -18 11 -11 0 -32 11 -48 25 -34 29 -25 46 28 50 50 4 50 4 43 15 -3 6 -22
10 -41 10 -24 0 -34 4 -31 13 2 8 20 11 53 9 36 -2 45 0 34 7 -12 9 -9 11 13
11 16 0 26 -4 22 -10z m-3431 -438 c-6 -4 -15 -21 -18 -39 -4 -18 -15 -35 -26
-38 -15 -5 -35 -53 -26 -63 11 -10 35 16 46 49 14 41 22 44 79 33 17 -4 28
-11 25 -16 -4 -6 -1 -14 7 -19 21 -12 -1 -63 -29 -67 -19 -3 -22 -10 -22 -43
0 -29 3 -38 13 -33 9 5 9 4 0 -6 -9 -10 -16 -10 -26 -2 -18 15 -37 -3 -37 -35
0 -29 7 -29 31 0 15 18 18 19 19 5 0 -9 -12 -26 -26 -37 -18 -14 -25 -27 -21
-41 3 -13 0 -20 -9 -20 -13 0 -15 13 -14 99 0 25 -33 65 -44 53 -13 -12 -36
-10 -36 4 0 8 5 13 11 11 18 -3 34 54 18 63 -7 5 -17 6 -21 4 -4 -3 -8 2 -8
10 0 9 5 15 11 14 6 -2 19 12 28 29 9 18 22 33 29 33 6 0 12 11 12 25 0 14 5
25 10 25 6 0 10 8 10 17 0 14 3 14 12 5 9 -9 10 -15 2 -20z m-844 -147 l0 -44
46 1 c40 0 45 3 42 22 -2 13 -12 22 -26 24 -13 2 -21 9 -19 15 2 7 26 9 68 7
35 -2 92 -4 126 -4 35 -1 63 -3 64 -6 1 -3 2 -43 3 -90 l1 -85 63 -3 c36 -2
60 -7 57 -12 -8 -13 -152 -13 -160 0 -3 6 -25 10 -48 9 -35 0 -38 -2 -19 -9
20 -9 22 -15 22 -99 l0 -90 27 -3 c24 -3 27 -7 28 -45 1 -31 -3 -44 -14 -47
-9 -3 -77 -5 -151 -4 -103 0 -141 3 -158 15 -23 14 -24 14 -17 -6 10 -31 -20
-27 -52 6 -25 27 -25 28 -4 31 12 2 21 9 21 17 0 8 -7 11 -20 8 -11 -3 -20 0
-20 6 0 6 8 11 18 12 15 0 14 1 -2 8 -19 7 -19 8 2 13 12 4 22 11 22 17 0 7
-30 11 -85 11 -47 0 -85 4 -85 9 0 14 27 20 103 23 l67 3 2 95 c0 52 0 106 -1
119 -1 14 7 32 20 44 22 20 22 20 15 2 -8 -19 -9 -246 -1 -253 2 -2 22 -6 44
-9 l41 -6 2 44 c0 24 0 54 -1 67 -2 20 2 22 49 22 33 0 50 4 51 13 0 6 2 19 4
28 1 9 -15 26 -42 44 l-45 28 -20 -20 c-12 -12 -20 -35 -21 -56 -1 -24 -5 -33
-14 -30 -7 3 -13 0 -13 -7 0 -6 -5 -8 -11 -5 -14 9 -1 197 15 207 21 14 26 8
26 -37z m1017 -120 c-20 -14 -23 -45 -4 -45 8 0 8 -3 1 -8 -6 -4 -7 -17 -3
-32 7 -25 7 -25 8 -2 1 13 6 20 11 17 17 -10 34 6 19 17 -10 6 -7 7 10 3 17
-5 22 -4 19 6 -3 8 -12 14 -21 14 -8 0 -19 4 -23 8 -4 4 0 7 9 7 10 0 17 5 17
10 0 6 -4 10 -9 10 -20 0 -18 26 2 28 12 0 17 -2 11 -6 -8 -5 -5 -13 7 -25 17
-18 18 -18 28 1 6 11 22 22 35 24 14 3 23 2 20 -3 -2 -4 16 -22 40 -38 39 -27
45 -29 49 -13 3 9 5 2 6 -15 1 -23 -4 -33 -14 -33 -8 0 -15 -5 -15 -10 0 -6 7
-10 16 -8 17 3 18 -20 15 -243 l-1 -66 -57 3 c-32 1 -65 -3 -73 -10 -13 -9
-13 -9 -2 6 19 24 12 64 -10 60 -10 -2 -18 2 -18 8 0 6 -5 8 -10 5 -6 -4 -4
-12 5 -21 19 -20 19 -54 0 -54 -7 0 -18 7 -23 16 -11 20 -34 10 -25 -11 3 -11
-2 -15 -17 -15 -18 0 -20 3 -11 14 8 9 10 28 5 50 -6 36 -18 46 -27 24 -3 -7
-6 15 -6 49 -1 39 -5 63 -13 66 -7 2 -10 7 -6 11 3 4 16 3 27 -4 15 -7 27 -8
40 0 27 14 34 13 28 -4 -7 -17 8 -24 48 -22 23 1 29 5 27 19 -2 11 4 17 18 17
11 0 20 -7 20 -15 0 -8 8 -15 18 -14 10 0 12 3 4 6 -6 2 -10 9 -7 13 3 5 -6
20 -19 35 -22 23 -25 24 -34 9 -7 -12 -11 -13 -17 -4 -4 7 0 19 8 28 13 13 19
13 32 2 13 -11 15 -10 9 4 -3 9 -15 16 -25 16 -11 0 -19 7 -19 16 0 9 -6 14
-12 11 -8 -2 -13 -23 -13 -54 0 -28 -4 -55 -8 -60 -5 -4 -6 3 -2 17 8 33 -36
78 -55 56 -8 -10 -6 -15 10 -19 11 -3 20 -11 20 -17 0 -10 -4 -10 -15 0 -15
13 -29 8 -31 -11 -1 -5 -2 -14 -3 -19 -1 -6 -9 -5 -21 2 -22 14 -27 44 -7 51
6 3 2 6 -10 6 -12 1 -25 -4 -29 -10 -4 -8 -9 -8 -17 0 -6 6 -21 11 -33 11 -29
0 -51 27 -36 42 7 7 12 21 12 31 0 10 9 21 19 24 11 3 22 17 26 31 4 18 9 22
14 13 12 -18 2 -49 -19 -64 -9 -7 -20 -22 -24 -34 -12 -38 20 -28 38 12 9 19
21 35 26 35 5 0 13 12 16 28 11 43 23 53 47 40 19 -10 19 -12 4 -23z m1520
-63 c11 -7 16 -44 14 -119 -1 -42 -2 -43 -34 -43 -18 0 -43 7 -55 16 -18 13
-22 24 -21 69 1 31 -4 61 -11 70 -11 13 -6 15 41 15 30 0 59 -4 66 -8z m-1842
-242 c-8 -13 -2 -13 29 2 21 9 29 8 44 -5 10 -10 21 -14 24 -11 3 3 9 1 13 -5
3 -7 -2 -11 -14 -11 -19 0 -21 -6 -21 -59 0 -39 -4 -61 -13 -64 -17 -6 -66 3
-72 13 -3 5 -30 6 -61 3 -41 -4 -58 -2 -64 8 -12 18 -3 29 25 29 21 0 24 5 27
47 3 41 6 48 28 54 38 11 62 10 55 -1z"/>
<path d="M4573 1444 c-2 -6 -3 -31 -1 -54 l3 -43 83 -3 82 -4 0 58 0 57 -81 1
c-54 0 -83 -4 -86 -12z"/>
<path d="M4343 4353 c-4 -10 -13 -24 -20 -31 -7 -8 -13 -38 -14 -70 0 -31 -2
-102 -3 -157 l-4 -101 35 0 c33 0 35 1 31 33 -5 41 7 44 15 4 3 -16 12 -31 20
-34 11 -4 14 4 13 34 0 21 -3 39 -7 39 -3 0 -5 55 -3 122 2 109 0 125 -17 150
-23 32 -37 35 -46 11z"/>
<path d="M4346 3901 c-7 -11 -9 -932 -2 -939 3 -3 6 33 6 79 1 217 12 845 15
857 5 14 -11 17 -19 3z"/>
<path d="M3860 3124 c0 -270 3 -403 10 -399 13 8 14 805 0 805 -6 0 -9 -152
-10 -406z"/>
<path d="M8876 235 c-8 -8 -19 -15 -25 -15 -15 0 -14 -13 2 -29 10 -11 9 -12
-2 -6 -10 5 -12 3 -8 -11 21 -68 20 -71 -14 -78 -46 -9 -79 -7 -79 4 0 6 -4
10 -9 10 -5 0 -8 -15 -7 -32 1 -22 7 -34 19 -36 10 -2 17 3 17 12 0 12 10 16
35 16 29 0 37 -5 51 -32 l17 -33 9 32 c10 37 37 45 45 13 6 -23 33 -27 33 -5
0 23 17 18 24 -7 8 -32 26 -10 19 24 -3 16 -12 28 -19 28 -8 0 -14 10 -14 25
0 18 5 25 20 25 25 0 26 20 2 27 -14 3 -18 11 -15 28 4 18 -2 26 -28 39 -40
20 -53 20 -73 1z"/>
</g>
</svg>
