<?xml version="1.0" encoding="iso-8859-1"?>
<!-- Generator: Adobe Illustrator 17.1.0, SVG Export Plug-In . SVG Version: 6.00 Build 0)  -->
<!DOCTYPE svg PUBLIC "-//W3C//DTD SVG 1.1//EN" "http://www.w3.org/Graphics/SVG/1.1/DTD/svg11.dtd">
<svg version="1.1" id="Layer_1" xmlns="http://www.w3.org/2000/svg" xmlns:xlink="http://www.w3.org/1999/xlink" x="0px" y="0px"
	 viewBox="0 0 160 100" style="enable-background:new 0 0 160 100;" xml:space="preserve">
<g>
	<path style="fill:#FFCF8C;" d="M68,48V0h12v19L96,0h14L92,23l20,25H98L80,27v21H68z"/>
	<path style="fill:#FFCF8C;" d="M112,48l24-48l24,48h-12l-3-6h-18l-3,6H112z M132,33h8l-4-10L132,33z"/>
	<path style="fill:#FFCF8C;" d="M53,52h12l9,15l9-15h12L80,76v24H68V76L53,52z"/>
	<circle style="fill:#FFCF8C;" cx="6" cy="94" r="6"/>
	<path style="fill:#FFCF8C;" d="M40,12c6.617,0,12,5.383,12,12s-5.383,12-12,12s-12-5.383-12-12S33.383,12,40,12 M40,0
		C26.745,0,16,10.745,16,24s10.745,24,24,24s24-10.745,24-24S53.255,0,40,0L40,0z"/>
	<path style="fill:#FFCF8C;" d="M16,100V52h17.008c2.297,0,4.953,0.354,6.992,1c2.039,0.647,2.477,0.814,4,2
		c1.523,1.185,3.109,2.216,4,4s2,3.868,2,6c0,1.748-0.58,3.981-1.365,5.354C47.85,71.729,46.5,72.729,45,74
		c1.178,0.698,4.865,4.803,5,5c1.23,1.794,2,3.51,2,6c0,2.196-0.166,4.681-1.115,6.531c-0.949,1.85-2.244,3.385-3.885,4.602
		S44.191,98.319,42,99s-5.277,1-7.762,1H16z M28,71h4.902c1.547,0,2.807-0.317,3.779-1.155s1.459-2.027,1.459-3.57
		c0-1.497-0.486-2.625-1.459-3.385S34.402,62,32.762,62H28V71z M28,90h6.309c1.922,0,3.457-0.563,4.605-1.439
		c1.148-0.875,1.723-2.145,1.723-3.807c0-1.774-0.568-3.116-1.705-4.026C37.492,79.576,36.568,79,34.344,79H28V90z"/>
</g>
</svg>
